<?xml version="1.0" encoding="UTF-8"?>
<svg version="1.1" xmlns="http://www.w3.org/2000/svg" width="150" height="150">
<path d="M0 0 C18.04933245 -0.61775989 36.08572848 5.11584596 49.625 17.16015625 C50.223125 17.61777344 50.82125 18.07539063 51.4375 18.546875 C64.49656044 28.72011628 71.15825797 44.82644611 74.3125 60.59765625 C76.09666827 80.93717454 70.75422847 99.70174566 57.9375 115.72265625 C46.69162459 128.03819076 32.02470814 136.22440603 15.625 139.16015625 C14.449375 139.38703125 13.27375 139.61390625 12.0625 139.84765625 C-8.7842751 141.74281762 -27.52366924 136.02717355 -44.00390625 123.09765625 C-57.67468052 111.40966604 -66.97910133 95.17705319 -68.55517578 77.09277344 C-69.74273679 57.99815453 -65.0130371 40.10305391 -52.54711914 25.30395508 C-38.92517114 10.08719471 -20.28936799 1.36819751 0 0 Z " fill="#FAF8F8" transform="translate(71.375,4.83984375)"/>
<path d="M0 0 C1.8862858 1.58017802 3.39853189 3.1224167 5 5 C4.278125 5.39832031 3.55625 5.79664062 2.8125 6.20703125 C1.884375 6.73683594 0.95625 7.26664063 0 7.8125 C-0.928125 8.33457031 -1.85625 8.85664063 -2.8125 9.39453125 C-3.534375 9.92433594 -4.25625 10.45414063 -5 11 C-5.33857716 14.06472643 -5.33857716 14.06472643 -3.2421875 15.91015625 C-2.07042969 16.97556641 -2.07042969 16.97556641 -0.875 18.0625 C3.8015504 22.56966353 6.9856267 27.27763232 10 33 C10.34836914 33.5885376 10.69673828 34.1770752 11.05566406 34.78344727 C13.01536447 39.38327146 12.32616134 44.70145327 12.3125 49.625 C12.32861328 50.76324219 12.34472656 51.90148437 12.36132812 53.07421875 C12.36543272 60.22441502 11.51887876 66.2963325 9 73 C8.34 73 7.68 73 7 73 C4.74275177 65.42209523 3.00174387 57.84699365 2 50 C4.64 50 7.28 50 10 50 C10.33 49.01 10.66 48.02 11 47 C7.17482487 44.60926555 3.40334476 44.44033448 -1 44 C-1.495 41.03 -1.495 41.03 -2 38 C-1.34 37.67 -0.68 37.34 0 37 C0.33 36.01 0.66 35.02 1 34 C-0.32 34 -1.64 34 -3 34 C-3 33.34 -3 32.68 -3 32 C-7.62 31.34 -12.24 30.68 -17 30 C-17 28.02 -17 26.04 -17 24 C-16.34 24 -15.68 24 -15 24 C-15 24.66 -15 25.32 -15 26 C-9.27959989 26.8320582 -3.77759884 27.12036664 2 27 C-2.07650587 21.98080215 -6.1349691 17.86846501 -11.49609375 14.2265625 C-12.24052734 13.61941406 -12.24052734 13.61941406 -13 13 C-13 12.34 -13 11.68 -13 11 C-15.97065509 11.34227572 -15.97065509 11.34227572 -19 12 C-19.33 12.66 -19.66 13.32 -20 14 C-20.66 14 -21.32 14 -22 14 C-22 12.35 -22 10.7 -22 9 C-26.53701494 7.54815522 -30.18061476 6.76490804 -35 7 C-34.175 7.45375 -33.35 7.9075 -32.5 8.375 C-31.675 8.91125 -30.85 9.4475 -30 10 C-30 10.66 -30 11.32 -30 12 C-30.99 12.495 -30.99 12.495 -32 13 C-29.44261417 18.02005367 -27.91620394 20.17318273 -23 23 C-19 28.2972973 -19 28.2972973 -19 31 C-19.66 31 -20.32 31 -21 31 C-18.85432664 35.70222033 -16.93986034 39.53769849 -13 43 C-12.2575 43.825 -11.515 44.65 -10.75 45.5 C-7.86884397 48.11923275 -5.34521667 49.39043008 -1.76953125 50.8125 C0.76278226 52.5118892 1.14003303 54.09710679 2 57 C2.43612211 59.30175558 2.80745707 61.61641238 3.125 63.9375 C3.29257813 65.12214844 3.46015625 66.30679688 3.6328125 67.52734375 C3.97031967 70.71929984 4.06852819 73.79385952 4 77 C1.40725308 74.66119172 -0.10592247 72.24935306 -1.7421875 69.17578125 C-2.25136719 68.22896484 -2.76054688 67.28214844 -3.28515625 66.30664062 C-3.80980469 65.31857422 -4.33445312 64.33050781 -4.875 63.3125 C-8.10656054 57.25634602 -11.32859396 51.27446624 -15.12158203 45.54760742 C-16 44 -16 44 -16 42 C-16.66 42 -17.32 42 -18 42 C-16.1691833 45.37637087 -14.33526512 48.75104511 -12.5 52.125 C-11.95698242 53.12370117 -11.41396484 54.12240234 -10.85449219 55.15136719 C-7.11771072 62.00397472 -3.2868086 68.78908131 0.671875 75.515625 C2 78 2 78 2 80 C-25.06 80 -52.12 80 -80 80 C-72.125 64.25 -72.125 64.25 -68.5625 58.125 C-68.0375293 57.21814453 -68.0375293 57.21814453 -67.50195312 56.29296875 C-66.67164881 54.85984075 -65.83644158 53.42955469 -65 52 C-64.34 52 -63.68 52 -63 52 C-62.83371094 50.91585815 -62.83371094 50.91585815 -62.6640625 49.80981445 C-61.95741947 46.81983114 -60.90731005 44.69864848 -59.375 42.04296875 C-58.83705811 41.10203369 -58.29911621 40.16109863 -57.74487305 39.19165039 C-57.16906494 38.20028076 -56.59325684 37.20891113 -56 36.1875 C-54.81884336 34.12769995 -53.63785478 32.06780353 -52.45703125 30.0078125 C-51.58038818 28.48655762 -51.58038818 28.48655762 -50.68603516 26.93457031 C-48.32548732 22.82600024 -46.00387586 18.69608229 -43.6875 14.5625 C-42.96237138 13.27206135 -42.23712601 11.98168829 -41.51171875 10.69140625 C-41.01285156 9.80324219 -40.51398438 8.91507813 -40 8 C-39.34 8 -38.68 8 -38 8 C-38 6.68 -38 5.36 -38 4 C-38.66 4 -39.32 4 -40 4 C-40.20238281 4.76957031 -40.40476563 5.53914063 -40.61328125 6.33203125 C-42.55807368 11.47614417 -45.3671355 15.97884089 -48.1875 20.6875 C-53.51947219 29.69825457 -58.6937549 38.76994528 -63.75 47.9375 C-73.06913793 64.76402122 -73.06913793 64.76402122 -76.75 71.1875 C-77.14413086 71.89447021 -77.53826172 72.60144043 -77.94433594 73.32983398 C-79.046875 75.23046875 -79.046875 75.23046875 -81 78 C-81.99 78 -82.98 78 -84 78 C-90.27632177 66.11981951 -91.33937839 52.12725979 -88.0078125 39.12890625 C-86.85261831 36.25527101 -85.58494361 33.65684189 -84 31 C-83.38125 29.9275 -82.7625 28.855 -82.125 27.75 C-76.73171201 20.77045083 -71.62490632 15.56456977 -64 11 C-67.8276567 12.3413735 -70.56630975 14.04962061 -73.6875 16.625 C-77.78571429 20 -77.78571429 20 -80 20 C-80 19.34 -80 18.68 -80 18 C-81.175625 18.0928125 -81.175625 18.0928125 -82.375 18.1875 C-83.24125 18.125625 -84.1075 18.06375 -85 18 C-85.66 17.01 -86.32 16.02 -87 15 C-87.99 14.34 -88.98 13.68 -90 13 C-88.35 11.68 -86.7 10.36 -85 9 C-84.34 9.66 -83.68 10.32 -83 11 C-79.91652174 11.16681109 -79.91652174 11.16681109 -77 11 C-77 11.66 -77 12.32 -77 13 C-78.32 13 -79.64 13 -81 13 C-80.67 13.66 -80.34 14.32 -80 15 C-78.35 14.67 -76.7 14.34 -75 14 C-75.5005075 10.29624453 -76.06669113 8.36921101 -79 6 C-79.99 5.34 -80.98 4.68 -82 4 C-58.6780614 -15.34349025 -25.19481385 -16.94439946 0 0 Z " fill="#444876" transform="translate(113,20)"/>
<path d="M0 0 C0.66 0 1.32 0 2 0 C2 1.32 2 2.64 2 4 C1.34 4 0.68 4 0 4 C-0.21398437 4.78246094 -0.42796875 5.56492187 -0.6484375 6.37109375 C-2.46625395 11.25187839 -5.00945169 15.56967921 -7.625 20.0625 C-8.15971924 20.99118896 -8.69443848 21.91987793 -9.24536133 22.87670898 C-12.88738639 29.17354553 -16.64695092 35.38127131 -20.57421875 41.50390625 C-21.84977632 43.73700567 -22.55649824 45.48682336 -23 48 C-23.66 48 -24.32 48 -25 48 C-25.66 49.98 -26.32 51.96 -27 54 C-30.96 60.93 -34.92 67.86 -39 75 C-12.27 75.33 14.46 75.66 42 76 C32.83917798 59.12722184 32.83917798 59.12722184 23.328125 42.484375 C22 40 22 40 22 38 C22.66 38 23.32 38 24 38 C26.04309833 41.60335683 28.08420642 45.20783743 30.125 48.8125 C30.97964844 50.31973633 30.97964844 50.31973633 31.8515625 51.85742188 C35.63189498 58.5374412 39.34559682 65.25026899 43 72 C42.15566865 63.97885214 41.08446979 55.99138419 40 48 C39.07574219 47.70738281 38.15148437 47.41476563 37.19921875 47.11328125 C31.2586714 45.04605781 28.03877641 42.41694926 25 37 C24.13375 36.175 23.2675 35.35 22.375 34.5 C19.86816166 31.8612228 19.30492562 30.55746557 19 27 C19.66 27 20.32 27 21 27 C18.0693481 21.46960817 18.0693481 21.46960817 13.4375 17.5 C9.78000335 15.24923283 8.64158285 11.86092949 7 8 C7.99 8 8.98 8 10 8 C8.62776167 5.25552334 6.59786905 4.53207662 4 3 C4 2.67 4 2.34 4 2 C9.65394631 1.65384002 13.03006806 2.56574762 18 5 C18 6.65 18 8.3 18 10 C18.66 10 19.32 10 20 10 C20.33 9.01 20.66 8.02 21 7 C22.98 7 24.96 7 27 7 C27 7.66 27 8.32 27 9 C28.07507813 9.34224609 28.07507813 9.34224609 29.171875 9.69140625 C32.58530457 11.27082463 34.6212293 13.25757059 37.25 15.9375 C38.12140625 16.81277344 38.9928125 17.68804687 39.890625 18.58984375 C42 21 42 21 43 24 C40.75026553 24.054138 38.50015617 24.09285491 36.25 24.125 C34.99703125 24.14820312 33.7440625 24.17140625 32.453125 24.1953125 C29.27179508 24.01537302 27.63478104 23.68998582 25 22 C25 21.34 25 20.68 25 20 C24.34 20 23.68 20 23 20 C23 21.98 23 23.96 23 26 C23.67546875 25.97679688 24.3509375 25.95359375 25.046875 25.9296875 C26.38492188 25.90261719 26.38492188 25.90261719 27.75 25.875 C29.07257813 25.84019531 29.07257813 25.84019531 30.421875 25.8046875 C33.1135858 26.00860498 34.69904974 26.63448279 37 28 C37 28.66 37 29.32 37 30 C38.32 30 39.64 30 41 30 C40.67 31.32 40.34 32.64 40 34 C39.34 34 38.68 34 38 34 C38.495 36.97 38.495 36.97 39 40 C40.2375 39.938125 41.475 39.87625 42.75 39.8125 C45.78211302 39.79637174 46.82248296 39.89348977 49.5 41.5 C49.995 41.995 50.49 42.49 51 43 C50.67 44.32 50.34 45.64 50 47 C44.25 47.125 44.25 47.125 42 46 C42.45375 47.19625 42.9075 48.3925 43.375 49.625 C45.50130466 55.9232958 46.20497949 62.42471272 47 69 C47.66 69 48.32 69 49 69 C50.83343335 61.5443133 51.25165491 54.53275043 51.125 46.875 C51.11597656 45.823125 51.10695313 44.77125 51.09765625 43.6875 C51.07435853 41.12475122 51.04165112 38.56250488 51 36 C55.35644024 40.35644024 54.3071127 46.76049188 54.31689453 52.52905273 C54.11441148 65.7791939 48.65012649 77.5607461 39.73828125 87.34765625 C27.02018257 99.43699499 12.08606677 102.51208717 -4.7734375 102.27734375 C-10.80173638 102.06242923 -15.67701338 100.86554113 -21 98 C-21.8559375 97.55269531 -22.711875 97.10539062 -23.59375 96.64453125 C-36.10648238 89.61554153 -45.22068904 79.66295702 -50.1171875 66.02734375 C-53.14127329 54.41279381 -53.04918801 38.53968954 -47 28 C-45.14888187 24.87190734 -43.18932382 21.90085406 -41 19 C-40.39285156 18.18015625 -39.78570312 17.3603125 -39.16015625 16.515625 C-36.80195438 13.76936459 -34.3559698 11.76124048 -31.4375 9.625 C-30.48746094 8.91601562 -29.53742187 8.20703125 -28.55859375 7.4765625 C-27.71425781 6.98929688 -26.86992188 6.50203125 -26 6 C-25.01 6.33 -24.02 6.66 -23 7 C-23.78503906 7.54527344 -24.57007812 8.09054688 -25.37890625 8.65234375 C-34.60844294 15.27722592 -41.624477 22.27893181 -46 33 C-46.35578125 33.85078125 -46.7115625 34.7015625 -47.078125 35.578125 C-48.34101549 40.26580327 -48.42433083 44.72529952 -48.4375 49.5625 C-48.44136719 50.53525879 -48.44523437 51.50801758 -48.44921875 52.51025391 C-48.32083036 60.55993822 -46.79207961 66.82213501 -43 74 C-40.32859031 70.78806324 -38.08475775 67.61666016 -36.07421875 63.95703125 C-35.53249023 62.97871338 -34.99076172 62.00039551 -34.43261719 60.99243164 C-33.85672852 59.9430542 -33.28083984 58.89367676 -32.6875 57.8125 C-31.43769588 55.55646117 -30.1863431 53.30127971 -28.93359375 51.046875 C-28.61194244 50.46760757 -28.29029114 49.88834015 -27.95889282 49.29151917 C-24.46155749 43.00679509 -20.85860365 36.78386529 -17.25 30.5625 C-11.38327808 20.43782013 -5.63204586 10.25694939 0 0 Z " fill="#5C4D60" transform="translate(73,24)"/>
<path d="M0 0 C3.88889425 1.29629808 4.166712 2.6003561 6.08203125 6.16015625 C6.97498901 7.79803101 6.97498901 7.79803101 7.88598633 9.46899414 C8.1996817 10.05423859 8.51337708 10.63948303 8.83657837 11.24246216 C10.4968519 14.33877703 12.18767222 17.41837107 13.875 20.5 C14.21880203 21.12975235 14.56260406 21.7595047 14.91682434 22.40834045 C18.2665976 28.52771692 21.77239659 34.55143875 25.3125 40.5625 C29.56060039 47.79998225 33.77614032 55.05173375 37.875 62.375 C38.509823 63.49950562 38.509823 63.49950562 39.1574707 64.64672852 C42 69.7613455 42 69.7613455 42 72 C14.94 72 -12.12 72 -40 72 C-32.125 56.25 -32.125 56.25 -28.5625 50.125 C-28.21251953 49.52042969 -27.86253906 48.91585937 -27.50195312 48.29296875 C-26.67164881 46.85984075 -25.83644158 45.42955469 -25 44 C-24.34 44 -23.68 44 -23 44 C-22.83371094 42.91585815 -22.83371094 42.91585815 -22.6640625 41.80981445 C-21.95741947 38.81983114 -20.90731005 36.69864848 -19.375 34.04296875 C-18.83705811 33.10203369 -18.29911621 32.16109863 -17.74487305 31.19165039 C-17.16906494 30.20028076 -16.59325684 29.20891113 -16 28.1875 C-14.81884336 26.12769995 -13.63785478 24.06780353 -12.45703125 22.0078125 C-11.87260254 20.99364258 -11.28817383 19.97947266 -10.68603516 18.93457031 C-8.32548732 14.82600024 -6.00387586 10.69608229 -3.6875 6.5625 C-2.96237138 5.27206135 -2.23712601 3.98168829 -1.51171875 2.69140625 C-1.01285156 1.80324219 -0.51398438 0.91507813 0 0 Z " fill="#EDC00D" transform="translate(73,28)"/>
<path d="M0 0 C18.04933245 -0.61775989 36.08572848 5.11584596 49.625 17.16015625 C50.223125 17.61777344 50.82125 18.07539063 51.4375 18.546875 C64.49656044 28.72011628 71.15825797 44.82644611 74.3125 60.59765625 C76.09666827 80.93717454 70.75422847 99.70174566 57.9375 115.72265625 C46.69162459 128.03819076 32.02470814 136.22440603 15.625 139.16015625 C14.449375 139.38703125 13.27375 139.61390625 12.0625 139.84765625 C-8.7842751 141.74281762 -27.52366924 136.02717355 -44.00390625 123.09765625 C-57.67468052 111.40966604 -66.97910133 95.17705319 -68.55517578 77.09277344 C-69.74273679 57.99815453 -65.0130371 40.10305391 -52.54711914 25.30395508 C-38.92517114 10.08719471 -20.28936799 1.36819751 0 0 Z M-44.375 22.16015625 C-44.99761719 22.68996094 -45.62023437 23.21976563 -46.26171875 23.765625 C-55.51503849 32.18718566 -63.57247536 46.32653035 -64.59277344 58.82861328 C-65.43015545 80.02960343 -62.81800389 98.19265247 -48.0625 114.53515625 C-35.50372243 127.83571208 -19.16825608 135.97592159 -0.85473633 136.56152344 C9.92446131 136.70420488 22.37610467 136.32608647 31.625 130.16015625 C31.13 128.70609375 31.13 128.70609375 30.625 127.22265625 C29.625 124.16015625 29.625 124.16015625 29.625 123.16015625 C31.11 124.15015625 31.11 124.15015625 32.625 125.16015625 C33.12 123.67515625 33.12 123.67515625 33.625 122.16015625 C33.295 124.47015625 32.965 126.78015625 32.625 129.16015625 C46.19449844 125.41122575 56.11756961 113.46353206 62.86987305 101.72460938 C71.01352803 86.93083047 73.14552888 70.38726522 69.5625 53.78515625 C64.10012337 35.71336815 52.77654873 21.2174193 36.30200195 12.01708984 C9.43587575 -2.21462003 -21.7676971 1.83395058 -44.375 22.16015625 Z " fill="#2E236D" transform="translate(71.375,4.83984375)"/>
<path d="M0 0 C-3.83424532 7.89342614 -7.9491672 15.52414545 -12.4375 23.0625 C-18.39691902 33.16109709 -24.13954401 43.36169659 -29.76147461 53.65063477 C-33.58721939 60.61081388 -37.65038753 67.35432188 -42 74 C-48.23674069 67.97026148 -49.23430491 60.35135554 -49.52954102 51.9699707 C-49.6397422 42.24859332 -49.07285314 34.50362665 -44 26 C-43.38125 24.9275 -42.7625 23.855 -42.125 22.75 C-41.42375 21.8425 -40.7225 20.935 -40 20 C-39.53207031 19.37738281 -39.06414063 18.75476563 -38.58203125 18.11328125 C-32.16699845 10.11353727 -23.70210535 5.07233336 -14 2 C-12.824375 1.608125 -11.64875 1.21625 -10.4375 0.8125 C-6.8401816 -0.03777526 -3.68279705 -0.15031825 0 0 Z " fill="#F5F6F7" transform="translate(73,25)"/>
<path d="M0 0 C11.88 0 23.76 0 36 0 C32.67585832 3.32414168 29.07041652 3.94099137 24.45703125 4.1953125 C23.25433594 4.17210938 22.05164063 4.14890625 20.8125 4.125 C19.60207031 4.10695313 18.39164063 4.08890625 17.14453125 4.0703125 C16.10683594 4.04710938 15.06914063 4.02390625 14 4 C13.01 4 12.02 4 11 4 C17.81308613 5.55692096 25.29693617 5.97095971 32.0625 4 C38.37859698 2.16544901 45.03508792 2.37139873 51.375 4 C58.68248795 5.85984802 66.67440339 5.69573996 74 4 C72.91203125 4.03480469 71.8240625 4.06960937 70.703125 4.10546875 C61.66514977 4.30335805 53.69740865 3.81534615 45 1 C45 0.67 45 0.34 45 0 C57.87 0 70.74 0 84 0 C79.48646294 11.28384265 69.61104085 15.39444039 59 20 C48.31714969 24.44878807 33.54055989 23.21554111 22.890625 19.32421875 C14.43166918 15.4491025 6.90691961 10.26519525 1 3 C0.67 2.01 0.34 1.02 0 0 Z " fill="#ADA8C1" transform="translate(32,102)"/>
<path d="M0 0 C9.4235614 3.16974338 15.37120204 16.40384837 19.578125 24.8671875 C25.61971165 39.2290215 25.58539531 57.20303872 20.578125 71.8671875 C18.640625 71.5546875 18.640625 71.5546875 16.578125 70.8671875 C16.248125 69.8771875 15.918125 68.8871875 15.578125 67.8671875 C14.093125 68.3621875 14.093125 68.3621875 12.578125 68.8671875 C12.578125 67.5471875 12.578125 66.2271875 12.578125 64.8671875 C11.918125 64.8671875 11.258125 64.8671875 10.578125 64.8671875 C10.578125 66.1871875 10.578125 67.5071875 10.578125 68.8671875 C8.928125 68.8671875 7.278125 68.8671875 5.578125 68.8671875 C5.908125 67.6090625 6.238125 66.3509375 6.578125 65.0546875 C8.78724397 53.91373499 9.36199056 40.36457671 4.578125 29.8671875 C4.24941406 29.12726562 3.92070313 28.38734375 3.58203125 27.625 C-0.27106217 19.91881316 -6.34300283 13.8686218 -12.421875 7.8671875 C-4.86870684 -0.2669936 -4.86870684 -0.2669936 0 0 Z " fill="#EBDFE2" transform="translate(118.421875,25.1328125)"/>
<path d="M0 0 C1.65 0.66 3.3 1.32 5 2 C5 2.66 5 3.32 5 4 C6.32 4.66 7.64 5.32 9 6 C8.67 7.65 8.34 9.3 8 11 C6.35 11.33 4.7 11.66 3 12 C2.67 11.01 2.34 10.02 2 9 C3.32 9 4.64 9 6 9 C6 8.34 6 7.68 6 7 C5.071875 7.20625 4.14375 7.4125 3.1875 7.625 C0 8 0 8 -3 6 C-3.99 6.99 -4.98 7.98 -6 9 C-5.34 9.45375 -4.68 9.9075 -4 10.375 C-3.34 10.91125 -2.68 11.4475 -2 12 C-2 12.66 -2 13.32 -2 14 C-0.35 14 1.3 14 3 14 C3.66796875 15.76953125 3.66796875 15.76953125 4 18 C2.92578125 19.82421875 2.92578125 19.82421875 1.3125 21.6875 C-4.41350357 28.81171374 -7.14058409 36.19617361 -7.09765625 45.296875 C-7.09443359 46.50214844 -7.09121094 47.70742187 -7.08789062 48.94921875 C-7.07951172 50.20347656 -7.07113281 51.45773438 -7.0625 52.75 C-7.05798828 54.01972656 -7.05347656 55.28945312 -7.04882812 56.59765625 C-7.03704556 59.73181836 -7.02059416 62.86588541 -7 66 C-7.66 65.34 -8.32 64.68 -9 64 C-12.13545766 63.97864622 -12.13545766 63.97864622 -15.625 64.375 C-16.81351563 64.48585938 -18.00203125 64.59671875 -19.2265625 64.7109375 C-20.14179688 64.80632812 -21.05703125 64.90171875 -22 65 C-25.77937731 53.66186808 -24.42131732 37.01412619 -19.67578125 26.1328125 C-14.31493486 16.11090387 -8.55543147 7.64527918 0 0 Z " fill="#E3D9DF" transform="translate(30,24)"/>
<path d="M0 0 C0.66 0 1.32 0 2 0 C2 1.32 2 2.64 2 4 C3.32 3.01 4.64 2.02 6 1 C6 2.65 6 4.3 6 6 C6.99 6 7.98 6 9 6 C7.09678528 17.95389917 -1.96315803 29.46673339 -11.39453125 36.72265625 C-20.42057171 43.25888479 -20.42057171 43.25888479 -25 44 C-24.67 41.69 -24.34 39.38 -24 37 C-24.66 37.99 -25.32 38.98 -26 40 C-26.66 38.68 -27.32 37.36 -28 36 C-28 39.38023517 -27.12544378 41.83468937 -26 45 C-29.66291938 47.47785723 -32.6109185 48.48964169 -37 49 C-38.58540103 44.66657053 -39.38552692 40.56465719 -40 36 C-40.33 35.34 -40.66 34.68 -41 34 C-40.17757812 33.72027344 -39.35515625 33.44054687 -38.5078125 33.15234375 C-24.49334119 28.11943315 -14.34965427 20.90665965 -7.5 7.375 C-7.005 6.26125 -6.51 5.1475 -6 4 C-4.02 4 -2.04 4 0 4 C0 2.68 0 1.36 0 0 Z " fill="#F0DFDF" transform="translate(129,90)"/>
<path d="M0 0 C-0.33 0.99 -0.66 1.98 -1 3 C-1.06740865 4.56118428 -1.08514456 6.1250252 -1.0625 7.6875 C-1.05347656 8.49574219 -1.04445312 9.30398437 -1.03515625 10.13671875 C-1.02355469 10.75160156 -1.01195312 11.36648437 -1 12 C-1.94746094 12.03867187 -1.94746094 12.03867187 -2.9140625 12.078125 C-18.64564284 13.07551626 -32.04219858 18.21650226 -43.96875 28.42578125 C-46 30 -46 30 -48 30 C-48 29.34 -48 28.68 -48 28 C-49.175625 28.0928125 -49.175625 28.0928125 -50.375 28.1875 C-51.24125 28.125625 -52.1075 28.06375 -53 28 C-53.66 27.01 -54.32 26.02 -55 25 C-55.99 24.34 -56.98 23.68 -58 23 C-56.35 21.68 -54.7 20.36 -53 19 C-52.34 19.66 -51.68 20.32 -51 21 C-47.91652174 21.16681109 -47.91652174 21.16681109 -45 21 C-45 21.66 -45 22.32 -45 23 C-46.32 23 -47.64 23 -49 23 C-48.67 23.66 -48.34 24.32 -48 25 C-46.35 24.67 -44.7 24.34 -43 24 C-43.5005075 20.29624453 -44.06669113 18.36921101 -47 16 C-47.99 15.34 -48.98 14.68 -50 14 C-38.50859694 4.46889511 -15.36418552 -7.68209276 0 0 Z " fill="#EDE1E3" transform="translate(81,10)"/>
<path d="M0 0 C5.6666765 -0.29785422 10.08825729 0.68918591 15.4375 2.5 C16.53481445 2.85771484 16.53481445 2.85771484 17.65429688 3.22265625 C19.4392116 3.80596172 21.22005557 4.40169935 23 5 C22.67 5.99 22.34 6.98 22 8 C19.9375 8.6875 19.9375 8.6875 18 9 C18.495 10.485 18.495 10.485 19 12 C17.68 12.33 16.36 12.66 15 13 C14.67 14.32 14.34 15.64 14 17 C13.2575 16.979375 12.515 16.95875 11.75 16.9375 C9.11049842 16.8930205 9.11049842 16.8930205 7.0625 17.5 C4.34990044 18.15759989 1.77947642 18.06316992 -1 18 C0.2375 18.680625 0.2375 18.680625 1.5 19.375 C2.325 19.91125 3.15 20.4475 4 21 C4 21.66 4 22.32 4 23 C3.01 23.495 3.01 23.495 2 24 C4.55738583 29.02005367 6.08379606 31.17318273 11 34 C15 39.2972973 15 39.2972973 15 42 C14.34 42 13.68 42 13 42 C15.14567336 46.70222033 17.06013966 50.53769849 21 54 C21.7425 54.825 22.485 55.65 23.25 56.5 C26.13115603 59.11923275 28.65478333 60.39043008 32.23046875 61.8125 C34.76278226 63.5118892 35.14003303 65.09710679 36 68 C36.43612211 70.30175558 36.80745707 72.61641238 37.125 74.9375 C37.29257813 76.12214844 37.46015625 77.30679688 37.6328125 78.52734375 C37.97031967 81.71929984 38.06852819 84.79385952 38 88 C35.40725308 85.66119172 33.89407753 83.24935306 32.2578125 80.17578125 C31.74863281 79.22896484 31.23945312 78.28214844 30.71484375 77.30664062 C30.19019531 76.31857422 29.66554687 75.33050781 29.125 74.3125 C25.89343946 68.25634602 22.67140604 62.27446624 18.87841797 56.54760742 C18 55 18 55 18 53 C17.01 53.33 16.02 53.66 15 54 C14.56655273 53.21874756 14.13310547 52.43749512 13.68652344 51.63256836 C12.06171134 48.70447634 10.43650308 45.77660492 8.81103516 42.84887695 C8.11068355 41.58724495 7.41048507 40.32552793 6.71044922 39.0637207 C6.03046198 37.83809463 5.3501683 36.61263851 4.66955566 35.38735962 C3.68994222 33.62239537 2.71310863 31.85588913 1.73632812 30.08935547 C0.37658527 27.67003796 -1.03156516 25.30446424 -2.484375 22.94140625 C-4.02247141 19.95638925 -4.40010805 18.30089138 -4 15 C-12.4462681 17.04161327 -20.80695561 19.07391272 -29 22 C-29.66 21.34 -30.32 20.68 -31 20 C-20.62972689 14.841051 -10.59980352 12.38347501 1 13 C0.67 12.34 0.34 11.68 0 11 C-0.35294118 4.52941176 -0.35294118 4.52941176 2 1 C1.34 0.67 0.68 0.34 0 0 Z " fill="#525880" transform="translate(79,9)"/>
<path d="M0 0 C4.38855677 1.72407587 6.91486937 4.82973873 9 9 C9.55601425 14.06793316 9.55831633 17.92187191 7.1875 22.5 C5 25 5 25 2 27 C3.23227427 31.65525834 5.72708482 33.76390921 9.34375 36.66796875 C11 38 11 38 13 40 C1.45 40 -10.1 40 -22 40 C-14.125 24.25 -14.125 24.25 -10.5625 18.125 C-10.21251953 17.52042969 -9.86253906 16.91585937 -9.50195312 16.29296875 C-8.67164881 14.85984075 -7.83644158 13.42955469 -7 12 C-6.34 12 -5.68 12 -5 12 C-4.9175 11.319375 -4.835 10.63875 -4.75 9.9375 C-3.77667472 6.1253093 -2.04192545 3.35929671 0 0 Z " fill="#EDC00D" transform="translate(55,60)"/>
<path d="M0 0 C5.65394631 -0.34615998 9.03006806 0.56574762 14 3 C14 4.65 14 6.3 14 8 C14.66 8 15.32 8 16 8 C16.33 7.01 16.66 6.02 17 5 C18.98 5 20.96 5 23 5 C23 5.66 23 6.32 23 7 C23.71671875 7.22816406 24.4334375 7.45632812 25.171875 7.69140625 C28.58530457 9.27082463 30.6212293 11.25757059 33.25 13.9375 C34.12140625 14.81277344 34.9928125 15.68804687 35.890625 16.58984375 C38 19 38 19 39 22 C36.75026553 22.054138 34.50015617 22.09285491 32.25 22.125 C30.99703125 22.14820312 29.7440625 22.17140625 28.453125 22.1953125 C25.27179508 22.01537302 23.63478104 21.68998582 21 20 C21 19.34 21 18.68 21 18 C20.34 18 19.68 18 19 18 C19 19.98 19 21.96 19 24 C19.67546875 23.97679688 20.3509375 23.95359375 21.046875 23.9296875 C22.38492188 23.90261719 22.38492188 23.90261719 23.75 23.875 C25.07257813 23.84019531 25.07257813 23.84019531 26.421875 23.8046875 C29.1135858 24.00860498 30.69904974 24.63448279 33 26 C33 26.66 33 27.32 33 28 C34.32 28 35.64 28 37 28 C36.67 29.32 36.34 30.64 36 32 C35.34 32 34.68 32 34 32 C34.495 34.97 34.495 34.97 35 38 C36.2375 37.938125 37.475 37.87625 38.75 37.8125 C41.78211302 37.79637174 42.82248296 37.89348977 45.5 39.5 C45.995 39.995 46.49 40.49 47 41 C46.67 42.32 46.34 43.64 46 45 C44.3973218 45.10824843 42.79254252 45.18570645 41.1875 45.25 C40.29417969 45.29640625 39.40085938 45.3428125 38.48046875 45.390625 C36 45 36 45 34.1875 43.21875 C32.52117565 40.1053545 32.79987669 37.46880407 33 34 C32.0409375 34.2784375 32.0409375 34.2784375 31.0625 34.5625 C26.89371836 35.15804023 23.05759609 35.24907342 19 34 C16.19444177 30.85230052 15 29.23606876 15 25 C15.66 25 16.32 25 17 25 C14.0693481 19.46960817 14.0693481 19.46960817 9.4375 15.5 C5.78000335 13.24923283 4.64158285 9.86092949 3 6 C3.99 6 4.98 6 6 6 C4.62776167 3.25552334 2.59786905 2.53207662 0 1 C0 0.67 0 0.34 0 0 Z " fill="#0D9041" transform="translate(77,26)"/>
<path d="M0 0 C3.96 0 7.92 0 12 0 C12.0825 1.093125 12.165 2.18625 12.25 3.3125 C12.57148666 7.008864 12.57148666 7.008864 14.875 8.375 C20.07980009 12.35514125 20.31176649 20.51197755 21.1875 26.5625 C21.46666002 28.70726597 21.74037896 30.85278126 22 33 C22.66 33 23.32 33 24 33 C25.83343335 25.5443133 26.25165491 18.53275043 26.125 10.875 C26.11597656 9.823125 26.10695313 8.77125 26.09765625 7.6875 C26.07435853 5.12475122 26.04165112 2.56250488 26 0 C30.35671348 4.35671348 29.30439431 10.75616501 29.3190918 16.5246582 C29.16386004 27.12748782 26.0034615 35.3283334 20 44 C19.67 43.34 19.34 42.68 19 42 C6.79 42.33 -5.42 42.66 -18 43 C-10.74498703 44.73887563 -10.74498703 44.73887563 -3.74609375 45.1953125 C-2.43608398 45.18564453 -2.43608398 45.18564453 -1.09960938 45.17578125 C-0.22111328 45.15902344 0.65738281 45.14226562 1.5625 45.125 C2.93245117 45.11146484 2.93245117 45.11146484 4.33007812 45.09765625 C6.55367319 45.07437253 8.77668677 45.0416771 11 45 C4.47358847 49.35094102 -4.93508401 48.92454816 -12.4609375 47.55078125 C-13.89232964 47.18647386 -15.32332742 46.82061314 -16.75390625 46.453125 C-22.4189501 45.31026398 -28.38320511 45.38671933 -33.9375 47 C-43.14432807 49.61173286 -52.10260234 47.94244647 -61 45 C-57.44131981 43.81377327 -55.66397598 44.35263886 -52 45 C-49.66861138 45.11392013 -47.33413516 45.17470321 -45 45.1875 C-43.824375 45.20167969 -42.64875 45.21585938 -41.4375 45.23046875 C-37.49300529 45.11106508 -37.49300529 45.11106508 -32 43 C-43.22 42.67 -54.44 42.34 -66 42 C-66 41.67 -66 41.34 -66 41 C-38.28 41 -10.56 41 18 41 C14.04 34.07 10.08 27.14 6 20 C-3 4.25 -3 4.25 -3 2 C-2.34 2 -1.68 2 -1 2 C1.04309833 5.60335683 3.08420642 9.20783743 5.125 12.8125 C5.69476563 13.81732422 6.26453125 14.82214844 6.8515625 15.85742188 C10.63189498 22.5374412 14.34559682 29.25026899 18 36 C17.15566865 27.97885214 16.08446979 19.99138419 15 12 C14.07574219 11.70609375 13.15148437 11.4121875 12.19921875 11.109375 C7.11498854 9.34634523 3.84734029 7.46872317 1.125 2.75 C0.75375 1.8425 0.3825 0.935 0 0 Z " fill="#281D6A" transform="translate(98,60)"/>
<path d="M0 0 C12.87 0 25.74 0 39 0 C35.54704859 8.63237852 30.0581495 12.29766031 22 16.4375 C21.32372559 16.79175049 20.64745117 17.14600098 19.95068359 17.51098633 C15.39001129 19.74265171 12.06917372 20.37622774 7 20 C7 18.35 7 16.7 7 15 C12.94 14.505 12.94 14.505 19 14 C6.54276796 11.85021574 -5.44700272 11.2685521 -18 13 C-21.00233607 13.08050428 -23.99747272 13.06255265 -27 13 C-27.33 12.34 -27.66 11.68 -28 11 C-2.37864212 7.44852465 -2.37864212 7.44852465 10 10 C12.01857974 10.11405904 14.04074079 10.17472023 16.0625 10.1875 C17.59583984 10.20876953 17.59583984 10.20876953 19.16015625 10.23046875 C21.98043159 10.00158808 23.6055336 9.45275779 26 8 C25.01 8.33 24.02 8.66 23 9 C16.48123449 9.42088126 10.52298796 9.04633931 4.20703125 7.453125 C-1.57126463 6.26678461 -7.22070076 6.73362042 -12.9375 8 C-22.25368314 10.01509917 -29.58699169 9.65312064 -38 5 C-34.6212213 3.87374043 -32.43853408 4.24444767 -29 5 C-23.58315431 5.32127499 -18.18503564 5.52872423 -12.9375 4 C-6.62140302 2.16544901 0.03508792 2.37139873 6.375 4 C13.68248795 5.85984802 21.67440339 5.69573996 29 4 C27.91203125 4.03480469 26.8240625 4.06960937 25.703125 4.10546875 C16.66514977 4.30335805 8.69740865 3.81534615 0 1 C0 0.67 0 0.34 0 0 Z " fill="#E3E1E7" transform="translate(77,102)"/>
<path d="M0 0 C3.55716979 2.37144653 3.82336496 3.62920691 5.25 7.5625 C7.62171441 13.57519494 10.75940573 18.16058982 15 23 C14.01 23.66 13.02 24.32 12 25 C12 24.34 12 23.68 12 23 C7.545 24.485 7.545 24.485 3 26 C3.99 26.33 4.98 26.66 6 27 C7.1875 30.0625 7.1875 30.0625 8 33 C9.98 32.34 11.96 31.68 14 31 C13.67 32.32 13.34 33.64 13 35 C13.66 35 14.32 35 15 35 C15 36.32 15 37.64 15 39 C16.84725052 39.69159401 16.84725052 39.69159401 19 40 C19.99 39.34 20.98 38.68 22 38 C21.95875 38.78375 21.9175 39.5675 21.875 40.375 C21.71271266 43.16116119 21.71271266 43.16116119 24 45 C23.505 45.99 23.505 45.99 23 47 C9.64073736 42.24950408 -0.33624349 31.10582433 -7 19 C-9.626508 13.45590192 -11.96264231 8.06964603 -13 2 C-8.5153968 0.56492698 -4.76549564 -0.43322688 0 0 Z " fill="#F5F1F2" transform="translate(21,87)"/>
<path d="M0 0 C0.66 0.66 1.32 1.32 2 2 C1.76121786 6.41746952 0.08446151 8.91553849 -3 12 C-11.04887136 16.94170952 -18.61477865 17.82018164 -28 17 C-32.85222731 14.79444213 -37.23555906 10.63608578 -40 6 C-39.67 5.01 -39.34 4.02 -39 3 C-32.07 3.495 -32.07 3.495 -25 4 C-25 3.01 -25 2.02 -25 1 C-23.35 1 -21.7 1 -20 1 C-20 1.66 -20 2.32 -20 3 C-19.14277344 2.7834375 -18.28554687 2.566875 -17.40234375 2.34375 C-5.34086895 -0.59342988 -5.34086895 -0.59342988 0 0 Z " fill="#D9301F" transform="translate(96,83)"/>
<path d="M0 0 C0.33 0 0.66 0 1 0 C3.49866545 12.37242409 3.08178527 26.04620027 -1 38 C-2.9375 37.6875 -2.9375 37.6875 -5 37 C-5.495 35.515 -5.495 35.515 -6 34 C-7.485 34.495 -7.485 34.495 -9 35 C-9 33.68 -9 32.36 -9 31 C-9.66 31 -10.32 31 -11 31 C-11 32.32 -11 33.64 -11 35 C-12.65 35 -14.3 35 -16 35 C-15.731875 33.741875 -15.46375 32.48375 -15.1875 31.1875 C-14.44314581 27.52907833 -13.81721387 23.86780646 -13.26953125 20.17578125 C-13.07870972 18.90021362 -13.07870972 18.90021362 -12.8840332 17.59887695 C-12.62941371 15.87578447 -12.38177279 14.15164533 -12.14135742 12.42651367 C-12.02252197 11.62576416 -11.90368652 10.82501465 -11.78125 10 C-11.67876953 9.278125 -11.57628906 8.55625 -11.47070312 7.8125 C-11 6 -11 6 -9 4 C-6.8359375 3.8046875 -6.8359375 3.8046875 -4.375 3.875 C-3.14910156 3.90207031 -3.14910156 3.90207031 -1.8984375 3.9296875 C-0.95871094 3.96449219 -0.95871094 3.96449219 0 4 C0 2.68 0 1.36 0 0 Z " fill="#F3E8E9" transform="translate(140,59)"/>
<path d="M0 0 C3.21911243 2.09767979 6.12714799 4.45300389 9 7 C8.34 8.98 7.68 10.96 7 13 C8.423125 13.2165625 8.423125 13.2165625 9.875 13.4375 C13 14 13 14 15 15 C14.67 16.98 14.34 18.96 14 21 C14.66 21 15.32 21 16 21 C16.33 19.68 16.66 18.36 17 17 C22.35745253 17.95051577 22.35745253 17.95051577 25 19 C26.79956469 21.73533833 27.1468401 23.09448604 26.625 26.3125 C26.41875 26.869375 26.2125 27.42625 26 28 C21.33411776 29.45140993 18.27875228 28.42788131 13.75 26.8125 C12.50734375 26.38582031 11.2646875 25.95914063 9.984375 25.51953125 C7 24 7 24 6.11328125 21.99609375 C6.07589844 21.33738281 6.03851563 20.67867187 6 20 C5.814375 19.0925 5.62875 18.185 5.4375 17.25 C5.293125 16.5075 5.14875 15.765 5 15 C3.02 15.99 3.02 15.99 1 17 C0.01 16.34 -0.98 15.68 -2 15 C-1.67 13.68 -1.34 12.36 -1 11 C-2.32 11.33 -3.64 11.66 -5 12 C-4.01 10.35 -3.02 8.7 -2 7 C-3.32 7.99 -4.64 8.98 -6 10 C-7.32 9.34 -8.64 8.68 -10 8 C-10 6.35 -10 4.7 -10 3 C-11.32 2.67 -12.64 2.34 -14 2 C-9.26320518 -0.96049676 -5.29842463 -1.93798234 0 0 Z " fill="#F3EAE9" transform="translate(37,111)"/>
<path d="M0 0 C0.66 0 1.32 0 2 0 C2 1.32 2 2.64 2 4 C3.32 3.01 4.64 2.02 6 1 C6 2.65 6 4.3 6 6 C6.99 6 7.98 6 9 6 C7.72323502 14.40536948 2.66659502 21.8334113 -3 28 C-3.66 27.34 -4.32 26.68 -5 26 C-4.625 23.875 -4.625 23.875 -4 22 C-5.32 22 -6.64 22 -8 22 C-8 21.34 -8 20.68 -8 20 C-9.15224028 20.92961422 -10.29659176 21.8690125 -11.4375 22.8125 C-12.07558594 23.33457031 -12.71367188 23.85664062 -13.37109375 24.39453125 C-15.2548275 26.00834411 -15.2548275 26.00834411 -16 29 C-18.4375 30.125 -18.4375 30.125 -21 31 C-21.66 31.33 -22.32 31.66 -23 32 C-23.75 30.3125 -23.75 30.3125 -24 28 C-22.14228635 25.21342953 -20.02158481 23.02101679 -17.625 20.6875 C-12.75718111 15.70378066 -8.86801947 10.3733766 -6 4 C-4.02 4 -2.04 4 0 4 C0 2.68 0 1.36 0 0 Z " fill="#F6EBEC" transform="translate(129,90)"/>
<path d="M0 0 C1.65 0.66 3.3 1.32 5 2 C5 2.66 5 3.32 5 4 C6.32 4.66 7.64 5.32 9 6 C8.67 7.65 8.34 9.3 8 11 C6.35 11.33 4.7 11.66 3 12 C2.67 11.01 2.34 10.02 2 9 C3.32 9 4.64 9 6 9 C6 8.34 6 7.68 6 7 C5.071875 7.20625 4.14375 7.4125 3.1875 7.625 C0 8 0 8 -3 6 C-3.99 6.99 -4.98 7.98 -6 9 C-5.34 9.45375 -4.68 9.9075 -4 10.375 C-3.34 10.91125 -2.68 11.4475 -2 12 C-2 12.66 -2 13.32 -2 14 C-0.35 14 1.3 14 3 14 C3.67578125 15.75 3.67578125 15.75 4 18 C2.85546875 20 2.85546875 20 1.1875 22 C-1.19472831 24.88368609 -1.19472831 24.88368609 -2.88671875 28.1875 C-4 30 -4 30 -6.29296875 30.87109375 C-9.49490458 31.02356688 -11.39058403 30.34814303 -14.3125 29.0625 C-15.19550781 28.68222656 -16.07851563 28.30195312 -16.98828125 27.91015625 C-17.65214844 27.60980469 -18.31601562 27.30945313 -19 27 C-15.76422228 16.02437206 -8.29515354 7.60389074 0 0 Z " fill="#EFE3E5" transform="translate(30,24)"/>
<path d="M0 0 C11.88 0 23.76 0 36 0 C32.72769719 3.27230281 29.13850473 3.9228797 24.59765625 4.23046875 C12.7007967 4.08586604 12.7007967 4.08586604 7 3 C8.44170398 5.88340796 10.63756658 6.36558146 13.5625 7.39453125 C20.64649112 9.15417648 27.53180056 8.00363595 34.53125 6.453125 C40.24457045 5.40447758 45.75376284 5.58203027 51.375 7 C60.61793135 9.26590381 69.15772679 8.28650863 78 5 C74.10592051 9.22549051 69.62026963 10.8065345 63.984375 11.22265625 C56.37855802 11.28822364 56.37855802 11.28822364 52.58984375 10.49609375 C41.05602687 8.28675025 28.50186388 10.40568223 17 12 C17 12.33 17 12.66 17 13 C22.445 13.495 22.445 13.495 28 14 C28 14.33 28 14.66 28 15 C18.0970211 16.99400083 18.0970211 16.99400083 13.4453125 14.7890625 C8.35961864 10.90000249 3.86783427 6.09907412 0 1 C0 0.67 0 0.34 0 0 Z " fill="#C9C7CF" transform="translate(32,102)"/>
<path d="M0 0 C-0.52774586 11.8742818 -9.22810722 22.35051278 -17.39453125 30.34375 C-30.87958749 42.15075576 -45.77372232 47.91134678 -63.59765625 46.76953125 C-66.73402245 46.53404782 -69.86722887 46.27891126 -73 46 C-73 45.67 -73 45.34 -73 45 C-72.030625 44.97421875 -71.06125 44.9484375 -70.0625 44.921875 C-59.78809142 44.52899195 -48.35269583 43.67634791 -39 39 C-39.309375 38.071875 -39.61875 37.14375 -39.9375 36.1875 C-40.625 34.125 -41.3125 32.0625 -42 30 C-41.34 30 -40.68 30 -40 30 C-39.34 30.99 -38.68 31.98 -38 33 C-37.34 32.01 -36.68 31.02 -36 30 C-35.07908262 32.57856865 -34.81493098 33.5943287 -35.9765625 36.140625 C-36.31429687 36.75421875 -36.65203125 37.3678125 -37 38 C-21.40033529 29.34205801 -11.72198097 19.84230008 -4.19140625 3.30078125 C-2.48217317 0 -2.48217317 0 0 0 Z " fill="#332871" transform="translate(141,96)"/>
<path d="M0 0 C0.66 0 1.32 0 2 0 C2.33 0.66 2.66 1.32 3 2 C3.99 2.33 4.98 2.66 6 3 C7.21875 5.08203125 7.21875 5.08203125 8.5 7.8125 C16.88564865 23.65890958 30.94926518 33.64599219 47.78515625 39.078125 C58.33801681 42.10421867 69.10442336 42.94847618 80 44 C80 44.33 80 44.66 80 45 C60.74929332 48.42234785 41.81102458 43.72023799 25.66015625 32.9375 C13.63452851 24.17874617 5.54914313 13.7928221 0 0 Z " fill="#2A1F68" transform="translate(7,99)"/>
<path d="M0 0 C3.45231394 1.19900724 5.01411645 2.99155417 7.421875 5.71875 C8.21207031 6.59144531 9.00226563 7.46414062 9.81640625 8.36328125 C11.609375 10.90625 11.609375 10.90625 11.609375 14.90625 C10 16.35546875 10 16.35546875 7.859375 17.59375 C7.16328125 18.01011719 6.4671875 18.42648438 5.75 18.85546875 C3.69817361 19.8626609 1.84145332 20.44877449 -0.390625 20.90625 C-1.00550781 20.21917969 -1.62039062 19.53210938 -2.25390625 18.82421875 C-3.06214844 17.92316406 -3.87039062 17.02210937 -4.703125 16.09375 C-5.50363281 15.20042969 -6.30414063 14.30710937 -7.12890625 13.38671875 C-8.84287081 11.50698214 -10.56940104 9.68032253 -12.390625 7.90625 C-4.87170608 -0.1910473 -4.87170608 -0.1910473 0 0 Z " fill="#EDE0E1" transform="translate(118.390625,25.09375)"/>
<path d="M0 0 C0.66 0.33 1.32 0.66 2 1 C4.49457129 1.27379441 6.98892067 1.44549145 9.4921875 1.62109375 C12.04057815 2.00613097 13.7788664 2.72413954 16 4 C16 4.66 16 5.32 16 6 C17.32 6 18.64 6 20 6 C19.67 7.32 19.34 8.64 19 10 C18.34 10 17.68 10 17 10 C17.33 11.98 17.66 13.96 18 16 C19.2375 15.938125 20.475 15.87625 21.75 15.8125 C24.78211302 15.79637174 25.82248296 15.89348977 28.5 17.5 C28.995 17.995 29.49 18.49 30 19 C29.67 20.32 29.34 21.64 29 23 C27.3973218 23.10824843 25.79254252 23.18570645 24.1875 23.25 C23.29417969 23.29640625 22.40085937 23.3428125 21.48046875 23.390625 C19 23 19 23 17.1875 21.21875 C15.52117565 18.1053545 15.79987669 15.46880407 16 12 C15.360625 12.185625 14.72125 12.37125 14.0625 12.5625 C9.89371836 13.15804023 6.05759609 13.24907342 2 12 C-0.80555823 8.85230052 -2 7.23606876 -2 3 C-1.34 3 -0.68 3 0 3 C0 2.01 0 1.02 0 0 Z " fill="#189449" transform="translate(94,48)"/>
<path d="M0 0 C5.6666765 -0.29785422 10.08825729 0.68918591 15.4375 2.5 C16.16904297 2.73847656 16.90058594 2.97695312 17.65429688 3.22265625 C19.4392116 3.80596172 21.22005557 4.40169935 23 5 C22.67 5.99 22.34 6.98 22 8 C19.9375 8.6875 19.9375 8.6875 18 9 C18.33 9.99 18.66 10.98 19 12 C17.68 12.33 16.36 12.66 15 13 C14.67 14.32 14.34 15.64 14 17 C13.35675781 16.86722656 12.71351562 16.73445313 12.05078125 16.59765625 C4.71750143 15.16447603 -2.54553378 14.45034931 -10 14 C-10 13.67 -10 13.34 -10 13 C-6.37 13 -2.74 13 1 13 C0.67 12.34 0.34 11.68 0 11 C-0.35294118 4.52941176 -0.35294118 4.52941176 2 1 C1.34 0.67 0.68 0.34 0 0 Z " fill="#EAE1E3" transform="translate(79,9)"/>
<path d="M0 0 C4.28853112 0.57128243 7.13991377 2.09094395 10.75 4.4375 C11.71421875 5.05496094 12.6784375 5.67242188 13.671875 6.30859375 C16 8 16 8 17 10 C16.28972656 10.40992188 15.57945313 10.81984375 14.84765625 11.2421875 C13.92855469 11.78101563 13.00945312 12.31984375 12.0625 12.875 C10.68771484 13.67550781 10.68771484 13.67550781 9.28515625 14.4921875 C6.89299704 15.79712563 6.89299704 15.79712563 6 18 C1.25981099 16.16508812 -3.36413251 14.08058541 -8 12 C-8 10.35 -8 8.7 -8 7 C-6.35 6.67 -4.7 6.34 -3 6 C-3.66 4.68 -4.32 3.36 -5 2 C-3.35 2 -1.7 2 0 2 C0 1.34 0 0.68 0 0 Z " fill="#F8F5F6" transform="translate(101,15)"/>
<path d="M0 0 C0.66 0 1.32 0 2 0 C2.06058594 0.92941406 2.12117188 1.85882813 2.18359375 2.81640625 C2.79571552 11.94146885 2.79571552 11.94146885 4 21 C3.34 20.34 2.68 19.68 2 19 C-1.13545766 18.97864622 -1.13545766 18.97864622 -4.625 19.375 C-6.40777344 19.54128906 -6.40777344 19.54128906 -8.2265625 19.7109375 C-9.14179688 19.80632812 -10.05703125 19.90171875 -11 20 C-12.25433458 16.23699626 -12.10695422 12.72789091 -12.0625 8.8125 C-12.05798828 8.06291016 -12.05347656 7.31332031 -12.04882812 6.54101562 C-12.03706354 4.69397617 -12.01912865 2.84697787 -12 1 C-8.04 1.33 -4.08 1.66 0 2 C0 1.34 0 0.68 0 0 Z " fill="#F8F1F1" transform="translate(19,69)"/>
<path d="M0 0 C1.31626692 3.61973402 2 6.09567131 2 10 C-0.31 10.66 -2.62 11.32 -5 12 C-4.34 12.66 -3.68 13.32 -3 14 C-9.93 14 -16.86 14 -24 14 C-24 13.67 -24 13.34 -24 13 C-22.02 12.67 -20.04 12.34 -18 12 C-18.33 11.67 -18.66 11.34 -19 11 C-19.07205511 9.31391034 -19.08386068 7.62499341 -19.0625 5.9375 C-19.05347656 5.01839844 -19.04445313 4.09929687 -19.03515625 3.15234375 C-19.02355469 2.44207031 -19.01195313 1.73179687 -19 1 C-14.329411 0.94532755 -10.44016149 1.51994617 -6 3 C-6 2.34 -6 1.68 -6 1 C-3.92446352 0.4465236 -2.15634036 0 0 0 Z " fill="#E6E0E5" transform="translate(87,127)"/>
<path d="M0 0 C1.06347656 -0.00257812 2.12695312 -0.00515625 3.22265625 -0.0078125 C5.9375 0.125 5.9375 0.125 7.9375 1.125 C7.6075 2.115 7.2775 3.105 6.9375 4.125 C6.87009135 5.68618428 6.85235544 7.2500252 6.875 8.8125 C6.895625 10.235625 6.91625 11.65875 6.9375 13.125 C-1.4775 13.62 -1.4775 13.62 -10.0625 14.125 C-11.46015625 4.6209375 -11.46015625 4.6209375 -9.0625 1.125 C-5.82377868 0.04542623 -3.40221795 -0.00826784 0 0 Z " fill="#FCFAFA" transform="translate(73.0625,8.875)"/>
<path d="M0 0 C0.33 0 0.66 0 1 0 C2.15664737 5.48269069 2.11416255 10.80339274 2.0625 16.375 C2.05798828 17.30183594 2.05347656 18.22867188 2.04882812 19.18359375 C2.03711574 21.45579709 2.02071372 23.72786388 2 26 C0.02006459 25.69240822 -1.95893599 25.3787932 -3.9375 25.0625 C-5.03964844 24.88847656 -6.14179688 24.71445313 -7.27734375 24.53515625 C-10 24 -10 24 -11 23 C-11.1875 20.5625 -11.1875 20.5625 -11 18 C-9 16 -9 16 -6.6171875 15.8046875 C-5.71226562 15.82789062 -4.80734375 15.85109375 -3.875 15.875 C-2.50988281 15.90207031 -2.50988281 15.90207031 -1.1171875 15.9296875 C-0.41851562 15.95289062 0.28015625 15.97609375 1 16 C0.67 14.02 0.34 12.04 0 10 C-0.515625 10.495 -1.03125 10.99 -1.5625 11.5 C-4.80680017 13.49649241 -7.26217334 13.21564385 -11 13 C-11.125 9.625 -11.125 9.625 -11 6 C-9 4 -9 4 -6.8359375 3.8046875 C-5.61777344 3.83949219 -5.61777344 3.83949219 -4.375 3.875 C-3.14910156 3.90207031 -3.14910156 3.90207031 -1.8984375 3.9296875 C-0.95871094 3.96449219 -0.95871094 3.96449219 0 4 C0 2.68 0 1.36 0 0 Z " fill="#E2C6C8" transform="translate(140,59)"/>
<path d="M0 0 C6.03326054 5.45021435 7.88264188 12.46260057 8.35546875 20.4375 C8.60023939 28.67006756 8.24865957 36.30377079 5 44 C4.34 44 3.68 44 3 44 C0.74275177 36.42209523 -0.99825613 28.84699365 -2 21 C0.64 21 3.28 21 6 21 C6.33 20.01 6.66 19.02 7 18 C6.38125 17.690625 5.7625 17.38125 5.125 17.0625 C3.75 16.375 2.375 15.6875 1 15 C0.68758629 12.45058627 0.48696579 9.99638487 0.375 7.4375 C0.33632812 6.72658203 0.29765625 6.01566406 0.2578125 5.28320312 C0.16328217 3.52257575 0.08054183 1.76132272 0 0 Z " fill="#F6F8F7" transform="translate(117,49)"/>
<path d="M0 0 C4.38855677 1.72407587 6.91486937 4.82973873 9 9 C9.55601425 14.06793316 9.55831633 17.92187191 7.1875 22.5 C5 25 5 25 2 27 C-0.6875 26.625 -0.6875 26.625 -3 26 C-3 25.01 -3 24.02 -3 23 C-3.66 22.01 -4.32 21.02 -5 20 C-5.52114798 16.00453212 -5.33169207 14.47680735 -3 11.125 C-2.34 10.42375 -1.68 9.7225 -1 9 C2.16115776 10.36983503 2.9927092 10.9890638 5 14 C5.33706208 17.96047946 5.09429461 20.59677126 3 24 C5.978043 19.90519087 6.70660778 17.03458041 6 12 C4.5553211 9.56009786 3.06543243 8.01625547 1 6 C-1.24362573 5.7715451 -1.24362573 5.7715451 -3.125 8 C-3.74375 8.66 -4.3625 9.32 -5 10 C-3.66511872 6.40608886 -2.03977277 3.24509304 0 0 Z " fill="#F0DEBE" transform="translate(55,60)"/>
<path d="M0 0 C3 1 3 1 4.5625 3.75 C6.97902172 7.72067686 10.57419639 8.93435551 14.7578125 10.62890625 C17.69546115 12.42527328 18.09350422 13.70701533 19 17 C19.43612211 19.30175558 19.80745707 21.61641238 20.125 23.9375 C20.29257813 25.12214844 20.46015625 26.30679688 20.6328125 27.52734375 C20.97031967 30.71929984 21.06852819 33.79385952 21 37 C18.42982605 34.67689469 16.91781647 32.29541756 15.29296875 29.24609375 C14.78830078 28.30830078 14.28363281 27.37050781 13.76367188 26.40429688 C13.24353516 25.42525391 12.72339844 24.44621094 12.1875 23.4375 C8.65988055 16.83383215 5.0640323 10.33159438 1.0949707 3.98071289 C0 2 0 2 0 0 Z " fill="#F3F5F5" transform="translate(96,60)"/>
<path d="M0 0 C-3.49666435 7.10147296 -7.0759717 14.12426899 -11 21 C-11.66 20.67 -12.32 20.34 -13 20 C-13 17.36 -13 14.72 -13 12 C-13.45375 12.66 -13.9075 13.32 -14.375 14 C-14.91125 14.66 -15.4475 15.32 -16 16 C-16.66 16 -17.32 16 -18 16 C-18.66 14.68 -19.32 13.36 -20 12 C-18.35 10.35 -16.7 8.7 -15 7 C-16.98 7 -18.96 7 -21 7 C-21.33 6.34 -21.66 5.68 -22 5 C-14.60462993 2.14564664 -8.06331174 -0.32911476 0 0 Z " fill="#EFEFF1" transform="translate(73,25)"/>
<path d="M0 0 C6.04515563 0.27662893 12.06784903 0.31825577 18 -1 C18.495 0.485 18.495 0.485 19 2 C11.87319372 6.68332984 5.84216547 10.54135707 -3 10 C-3 8.35 -3 6.7 -3 5 C2.94 4.505 2.94 4.505 9 4 C-3.45723204 1.85021574 -15.44700272 1.2685521 -28 3 C-31.00233607 3.08050428 -33.99747272 3.06255265 -37 3 C-37.33 2.34 -37.66 1.68 -38 1 C-12.41283208 -2.54673615 -12.41283208 -2.54673615 0 0 Z " fill="#E7E6EB" transform="translate(87,112)"/>
<path d="M0 0 C-0.99 0 -1.98 0 -3 0 C-3.16852247 1.60397277 -3.33474886 3.2081869 -3.5 4.8125 C-3.5928125 5.70582031 -3.685625 6.59914063 -3.78125 7.51953125 C-4.04392401 10.08305099 -4.04392401 10.08305099 -4 13 C-3.01 13.33 -2.02 13.66 -1 14 C-2.41538717 14.33872513 -3.83237963 14.67074624 -5.25 15 C-6.03890625 15.185625 -6.8278125 15.37125 -7.640625 15.5625 C-10 16 -10 16 -14 16 C-16.66590937 11.44573816 -17.31563182 8.26053037 -17 3 C-15.58398286 2.51891725 -14.16715563 2.04021859 -12.75 1.5625 C-11.96109375 1.29566406 -11.1721875 1.02882813 -10.359375 0.75390625 C-3.98819188 -1.28191882 -3.98819188 -1.28191882 0 0 Z " fill="#F6EFF0" transform="translate(67,10)"/>
<path d="M0 0 C3.96 0 7.92 0 12 0 C12.12375 1.6396875 12.12375 1.6396875 12.25 3.3125 C12.57148666 7.008864 12.57148666 7.008864 14.875 8.375 C19.2186636 11.6966251 19.77275132 17.50778661 20.55859375 22.66796875 C20.88644017 25.16112643 21.19232572 27.65730357 21.47265625 30.15625 C21.64667969 31.0946875 21.82070312 32.033125 22 33 C22.66 33.33 23.32 33.66 24 34 C22.68 35.32 21.36 36.64 20 38 C17.31648472 29.39486101 16.02404728 20.92728279 15 12 C14.07574219 11.70609375 13.15148437 11.4121875 12.19921875 11.109375 C7.11498854 9.34634523 3.84734029 7.46872317 1.125 2.75 C0.75375 1.8425 0.3825 0.935 0 0 Z " fill="#489E69" transform="translate(98,60)"/>
<path d="M0 0 C0.99 0.33 1.98 0.66 3 1 C2.67 2.98 2.34 4.96 2 7 C2.66 7 3.32 7 4 7 C4.33 5.68 4.66 4.36 5 3 C10.35745253 3.95051577 10.35745253 3.95051577 13 5 C14.79956469 7.73533833 15.1468401 9.09448604 14.625 12.3125 C14.315625 13.1478125 14.315625 13.1478125 14 14 C9.68564127 15.2463703 6.96633468 14.68313839 2.75 13.25 C1.16445313 12.73179687 1.16445313 12.73179687 -0.453125 12.203125 C-1.29359375 11.80609375 -2.1340625 11.4090625 -3 11 C-4 8 -4 8 -3.22265625 5.95703125 C-2.83980469 5.24933594 -2.45695312 4.54164063 -2.0625 3.8125 C-1.68222656 3.09707031 -1.30195312 2.38164063 -0.91015625 1.64453125 C-0.60980469 1.10183594 -0.30945312 0.55914062 0 0 Z " fill="#EAE4E7" transform="translate(49,125)"/>
<path d="M0 0 C0.66 0 1.32 0 2 0 C2 0.66 2 1.32 2 2 C3.32 2 4.64 2 6 2 C6.30986026 5.95071827 6.45275666 8.2789431 4.3125 11.6875 C1.98542465 14.01457535 -0.31631508 16.09317124 -3 18 C-3.66 18 -4.32 18 -5 18 C-4.67 16.68 -4.34 15.36 -4 14 C-5.32 13.34 -6.64 12.68 -8 12 C-7.34 13.32 -6.68 14.64 -6 16 C-7.9375 15.25 -7.9375 15.25 -10 14 C-10.75 11.875 -10.75 11.875 -11 10 C-9.35 9.67 -7.7 9.34 -6 9 C-5.896875 8.360625 -5.79375 7.72125 -5.6875 7.0625 C-5.460625 6.381875 -5.23375 5.70125 -5 5 C-4.01 4.67 -3.02 4.34 -2 4 C-0.79117904 1.99983534 -0.79117904 1.99983534 0 0 Z " fill="#EDDEDF" transform="translate(119,110)"/>
<path d="M0 0 C8.71167069 2.41298551 17.73216575 1.7389269 26.6875 1.5 C20.16108847 5.85094102 10.75241599 5.42454816 3.2265625 4.05078125 C1.79517036 3.68647386 0.36417258 3.32061314 -1.06640625 2.953125 C-6.7314501 1.81026398 -12.69570511 1.88671933 -18.25 3.5 C-27.45682807 6.11173286 -36.41510234 4.44244647 -45.3125 1.5 C-41.75447261 0.31399087 -39.97429408 0.84705359 -36.3125 1.5 C-26.96678879 2.17145739 -26.96678879 2.17145739 -18 0 C-11.61740227 -2.59631094 -6.50401061 -1.92101579 0 0 Z " fill="#564E84" transform="translate(82.3125,103.5)"/>
<path d="M0 0 C12.87 0 25.74 0 39 0 C37.24869296 4.37826761 36.5629969 5.80161403 33.375 8.8125 C32.74335937 9.41707031 32.11171875 10.02164063 31.4609375 10.64453125 C30.97882813 11.09183594 30.49671875 11.53914063 30 12 C29.01 11.34 28.02 10.68 27 10 C29 8 31 6 33 4 C32.42668945 4.01571045 31.85337891 4.0314209 31.26269531 4.04760742 C10.20099264 4.54817135 10.20099264 4.54817135 0 1 C0 0.67 0 0.34 0 0 Z " fill="#BBB9C8" transform="translate(77,102)"/>
<path d="M0 0 C3.32851213 2.98418329 5.3205729 5.84562769 7 10 C6.67 10.99 6.34 11.98 6 13 C4.948125 12.95875 3.89625 12.9175 2.8125 12.875 C-0.75906093 12.99210036 -2.87804309 13.34719928 -6 15 C-6.33 15.66 -6.66 16.32 -7 17 C-7.67154933 15.71086513 -8.33708859 14.41859796 -9 13.125 C-9.37125 12.40570313 -9.7425 11.68640625 -10.125 10.9453125 C-11 9 -11 9 -11 7 C-9.730447 6.35165346 -8.45930294 5.70642185 -7.1875 5.0625 C-6.47980469 4.70285156 -5.77210937 4.34320313 -5.04296875 3.97265625 C-3 3 -3 3 0 2 C0 1.34 0 0.68 0 0 Z " fill="#F0E7E8" transform="translate(130,38)"/>
<path d="M0 0 C0.99 0.495 0.99 0.495 2 1 C0.730447 1.64834654 -0.54069706 2.29357815 -1.8125 2.9375 C-2.52019531 3.29714844 -3.22789063 3.65679687 -3.95703125 4.02734375 C-7.75036081 5.83334578 -10.71697849 6.13536913 -14.875 6.125 C-16.41800781 6.12886719 -16.41800781 6.12886719 -17.9921875 6.1328125 C-21 6 -21 6 -23.38671875 5.5 C-26.90430048 4.82697988 -30.37136207 4.85513294 -33.9375 4.875 C-34.62779297 4.87113281 -35.31808594 4.86726563 -36.02929688 4.86328125 C-40.13282469 4.87106045 -43.97048918 5.26011807 -48 6 C-54.4396824 6.58440399 -60.09922452 5.71959631 -66 3 C-66.66 2.34 -67.32 1.68 -68 1 C-65.23723823 1.52268466 -62.6739124 2.10869587 -60 3 C-54.53323101 3.39113322 -49.28976305 3.19409666 -43.9375 2 C-37.37017734 0.54521334 -31.17012508 0.34897746 -24.625 2 C-15.84994929 4.15881779 -8.23314464 3.50670975 0 0 Z " fill="#4C4280" transform="translate(108,107)"/>
<path d="M0 0 C3.15812669 1.62691375 4.35722853 4.01737238 6.0625 7.0625 C6.0625 8.0525 6.0625 9.0425 6.0625 10.0625 C6.7225 10.0625 7.3825 10.0625 8.0625 10.0625 C8.0625 10.7225 8.0625 11.3825 8.0625 12.0625 C6.1640625 13.7890625 6.1640625 13.7890625 3.6875 15.6875 C2.46933594 16.63496094 2.46933594 16.63496094 1.2265625 17.6015625 C-0.9375 19.0625 -0.9375 19.0625 -2.9375 19.0625 C-2.9375 18.4025 -2.9375 17.7425 -2.9375 17.0625 C-4.113125 17.1553125 -4.113125 17.1553125 -5.3125 17.25 C-6.17875 17.188125 -7.045 17.12625 -7.9375 17.0625 C-8.5975 16.0725 -9.2575 15.0825 -9.9375 14.0625 C-10.9275 13.4025 -11.9175 12.7425 -12.9375 12.0625 C-11.2875 10.7425 -9.6375 9.4225 -7.9375 8.0625 C-7.2775 8.7225 -6.6175 9.3825 -5.9375 10.0625 C-2.85402174 10.22931109 -2.85402174 10.22931109 0.0625 10.0625 C0.0625 10.7225 0.0625 11.3825 0.0625 12.0625 C-1.2575 12.0625 -2.5775 12.0625 -3.9375 12.0625 C-3.6075 12.7225 -3.2775 13.3825 -2.9375 14.0625 C-1.2875 13.7325 0.3625 13.4025 2.0625 13.0625 C1.5619925 9.35874453 0.99580887 7.43171101 -1.9375 5.0625 C-2.9275 4.4025 -3.9175 3.7425 -4.9375 3.0625 C-2.55339404 0.08236755 -2.55339404 0.08236755 0 0 Z " fill="#F1EBED" transform="translate(35.9375,20.9375)"/>
<path d="M0 0 C0.33 0.66 0.66 1.32 1 2 C2.65 2 4.3 2 6 2 C5.5359375 2.8353125 5.5359375 2.8353125 5.0625 3.6875 C3.94238179 6.12540433 3.43962636 8.36224186 3 11 C4.98 10.01 6.96 9.02 9 8 C9.33 9.65 9.66 11.3 10 13 C10.99 13.33 11.98 13.66 13 14 C10.03 18.95 10.03 18.95 7 24 C2.39183985 19.39183985 0.30605836 13.550277 -0.25390625 7.0546875 C-0.2505362 4.68890965 -0.18414547 2.35808499 0 0 Z " fill="#F8F7F8" transform="translate(24,75)"/>
<path d="M0 0 C0.66 0.99 1.32 1.98 2 3 C-6.76949477 14.17965393 -18.02739711 21.02837097 -32 24 C-35.49731526 24.21913464 -38.99647461 24.18512312 -42.5 24.1875 C-43.45003906 24.19974609 -44.40007812 24.21199219 -45.37890625 24.22460938 C-46.29542969 24.22654297 -47.21195313 24.22847656 -48.15625 24.23046875 C-49.40631836 24.23663208 -49.40631836 24.23663208 -50.68164062 24.24291992 C-53.19784261 23.97926986 -54.82646384 23.26216419 -57 22 C-52.56637193 21.04839202 -48.51344054 21.00529516 -44.02099609 21.16748047 C-34.3187084 21.47738155 -26.75084381 20.58089752 -18 16 C-17.08734375 15.54238281 -16.1746875 15.08476563 -15.234375 14.61328125 C-8.91151467 11.15842493 -3.27940815 6.5588163 0 0 Z " fill="#403679" transform="translate(116,102)"/>
<path d="M0 0 C0.66 0 1.32 0 2 0 C2 0.66 2 1.32 2 2 C7.33374495 2.79410832 7.33374495 2.79410832 12.6875 2.75 C15 3 15 3 17.75 4.9375 C20.62544989 8.85130679 21.1321831 12.19420001 21 17 C20.67 17.66 20.34 18.32 20 19 C18.68 19 17.36 19 16 19 C15.67 17.35 15.34 15.7 15 14 C15.66 13.67 16.32 13.34 17 13 C17.33 12.01 17.66 11.02 18 10 C16.68 10 15.36 10 14 10 C14 9.34 14 8.68 14 8 C9.38 7.34 4.76 6.68 0 6 C0 4.02 0 2.04 0 0 Z " fill="#ECF3EF" transform="translate(96,44)"/>
<path d="M0 0 C0.99 0.33 1.98 0.66 3 1 C2.21496094 1.54527344 1.42992188 2.09054688 0.62109375 2.65234375 C-12.60515224 12.14602952 -20.09943538 22.77973735 -23 39 C-23.48785047 43.66272471 -23.79908599 48.31662513 -24 53 C-24.33 53 -24.66 53 -25 53 C-25.55543247 37.24731787 -24.77727753 25.95489273 -15 13 C-14.39285156 12.18015625 -13.78570312 11.3603125 -13.16015625 10.515625 C-10.80195438 7.76936459 -8.3559698 5.76124048 -5.4375 3.625 C-4.48746094 2.91601562 -3.53742187 2.20703125 -2.55859375 1.4765625 C-1.71425781 0.98929688 -0.86992188 0.50203125 0 0 Z " fill="#41367B" transform="translate(47,30)"/>
<path d="M0 0 C3.82440382 1.50244436 5.83472958 3.52010111 8 7 C8.65744119 11.51990817 8.31178236 13.46412407 6 17.4375 C5.34 18.283125 4.68 19.12875 4 20 C3.34 19.67 2.68 19.34 2 19 C2.7425 18.195625 2.7425 18.195625 3.5 17.375 C5.43102443 14.31754465 5.44522837 12.561827 5 9 C3.62073227 6.65738392 3.62073227 6.65738392 2 5 C-1.12197478 6.3089572 -1.12197478 6.3089572 -3 9 C-3.41527201 13.67181016 -2.69993991 16.17508513 0 20 C-2.3125 19.875 -2.3125 19.875 -5 19 C-6.9375 16.3125 -6.9375 16.3125 -8 13 C-7.1875 9.625 -7.1875 9.625 -6 7 C-5.34 7 -4.68 7 -4 7 C-3.71125 6.401875 -3.4225 5.80375 -3.125 5.1875 C-2 3 -2 3 0 0 Z " fill="#ECCD5B" transform="translate(54,65)"/>
<path d="M0 0 C5.08332948 1.85737039 8.00311915 3.27414943 11 8 C11.75 10.3125 11.75 10.3125 12 12 C11.34 12 10.68 12 10 12 C10.30035156 12.53109375 10.60070312 13.0621875 10.91015625 13.609375 C11.29042969 14.31578125 11.67070313 15.0221875 12.0625 15.75 C12.44535156 16.44609375 12.82820313 17.1421875 13.22265625 17.859375 C14.1312406 20.36140628 13.88336837 21.5332355 13 24 C9.92392956 19.99814906 7.37924187 15.77642884 4.8125 11.4375 C4.34908203 10.66986328 3.88566406 9.90222656 3.40820312 9.11132812 C2.97056641 8.37205078 2.53292969 7.63277344 2.08203125 6.87109375 C1.68218018 6.20005615 1.2823291 5.52901855 0.87036133 4.83764648 C0 3 0 3 0 0 Z " fill="#463B79" transform="translate(82,39)"/>
<path d="M0 0 C4.35800757 4.35800757 3.29894546 10.75097714 3.32348633 16.52026367 C3.2292668 23.58539173 1.93244992 29.53599749 -1 36 C-1.30808594 36.67933594 -1.61617188 37.35867187 -1.93359375 38.05859375 C-2.57842136 39.39452847 -3.27958931 40.70326076 -4 42 C-4.33 41.34 -4.66 40.68 -5 40 C-5.66 40 -6.32 40 -7 40 C-7.495 38.515 -7.495 38.515 -8 37 C-7.38640625 36.94070312 -6.7728125 36.88140625 -6.140625 36.8203125 C-3.80900472 36.18066468 -3.80900472 36.18066468 -2.734375 33.8671875 C0.9319268 22.72279394 0.38682093 11.60909111 0 0 Z " fill="#49447D" transform="translate(124,60)"/>
<path d="M0 0 C3.04386724 -0.08226668 5.07175348 0.02391783 8 1 C8.33 4.63 8.66 8.26 9 12 C6.36 12 3.72 12 1 12 C-0.26237731 9.47524538 -0.09856404 7.68799534 -0.0625 4.875 C-0.05347656 3.96492187 -0.04445313 3.05484375 -0.03515625 2.1171875 C-0.02355469 1.41851562 -0.01195313 0.71984375 0 0 Z " fill="#F6E5E4" transform="translate(68,128)"/>
<path d="M0 0 C5.97873264 0.11935764 5.97873264 0.11935764 7.08984375 1.23046875 C7.40234375 3.60546875 7.40234375 3.60546875 7.08984375 6.23046875 C5.52734375 8.04296875 5.52734375 8.04296875 3.08984375 9.23046875 C-0.66015625 9.41796875 -0.66015625 9.41796875 -3.91015625 9.23046875 C-4.03515625 5.85546875 -4.03515625 5.85546875 -3.91015625 2.23046875 C-1.91015625 0.23046875 -1.91015625 0.23046875 0 0 Z " fill="#DB5551" transform="translate(132.91015625,62.76953125)"/>
<path d="M0 0 C-0.44962196 1.96035175 -0.90998248 3.91824309 -1.375 5.875 C-1.63023438 6.96554688 -1.88546875 8.05609375 -2.1484375 9.1796875 C-3 12 -3 12 -5 14 C-5 12.02 -5 10.04 -5 8 C-6.98 9.32 -8.96 10.64 -11 12 C-11.66 11.01 -12.32 10.02 -13 9 C-12.525625 8.566875 -12.05125 8.13375 -11.5625 7.6875 C-9.76313043 5.97690387 -9.76313043 5.97690387 -9 3 C-9.99 2.67 -10.98 2.34 -12 2 C-10.43670947 0.43670947 -8.72244543 0.6552225 -6.5625 0.4375 C-5.75941406 0.35371094 -4.95632812 0.26992187 -4.12890625 0.18359375 C-2 0 -2 0 0 0 Z " fill="#89959D" transform="translate(39,73)"/>
<path d="M0 0 C0.66 0.66 1.32 1.32 2 2 C0.58521865 2.64995297 -0.83191487 3.29478722 -2.25 3.9375 C-3.43335938 4.47697266 -3.43335938 4.47697266 -4.640625 5.02734375 C-14.08181965 8.91949188 -25.09958736 6.88143578 -35 6 C-35 5.67 -35 5.34 -35 5 C-34.00742188 4.96261719 -33.01484375 4.92523438 -31.9921875 4.88671875 C-21.71730626 4.4184641 -12.2107646 2.87134088 -2.23046875 0.28125 C-1.49441406 0.1884375 -0.75835937 0.095625 0 0 Z " fill="#291E67" transform="translate(103,136)"/>
<path d="M0 0 C2.5 0.25 2.5 0.25 4.5 2.25 C4.03846154 8.71153846 4.03846154 8.71153846 1.5 11.25 C-3.05555556 10.69444444 -3.05555556 10.69444444 -4.5 9.25 C-4.6875 5.8125 -4.6875 5.8125 -4.5 2.25 C-2.5 0.25 -2.5 0.25 0 0 Z " fill="#D84945" transform="translate(83.5,10.75)"/>
<path d="M0 0 C0.66 0 1.32 0 2 0 C16.28215524 24.98265839 16.28215524 24.98265839 21 35 C20.01 35.495 20.01 35.495 19 36 C18.56655273 35.21874756 18.13310547 34.43749512 17.68652344 33.63256836 C16.06171134 30.70447634 14.43650308 27.77660492 12.81103516 24.84887695 C12.11068355 23.58724495 11.41048507 22.32552793 10.71044922 21.0637207 C9.69800466 19.23886521 8.68494895 17.4143499 7.671875 15.58984375 C7.03314453 14.4385498 6.39441406 13.28725586 5.73632812 12.10107422 C4.3554538 9.63483889 2.94818807 7.19014777 1.515625 4.75390625 C0 2 0 2 0 0 Z " fill="#463A7B" transform="translate(95,62)"/>
<path d="M0 0 C0.66 0 1.32 0 2 0 C1.55187982 2.1479894 1.09121652 4.29336561 0.625 6.4375 C0.36976562 7.63246094 0.11453125 8.82742187 -0.1484375 10.05859375 C-0.42945313 11.02925781 -0.71046875 11.99992187 -1 13 C-1.99 13.495 -1.99 13.495 -3 14 C-3 12.02 -3 10.04 -3 8 C-5.97 10.475 -5.97 10.475 -9 13 C-9.66 11.68 -10.32 10.36 -11 9 C-10.01 8.34 -9.02 7.68 -8 7 C-7.27617533 4.94074861 -7.27617533 4.94074861 -7 3 C-7.99 2.67 -8.98 2.34 -10 2 C-9.04287109 1.90912109 -9.04287109 1.90912109 -8.06640625 1.81640625 C-6.82697266 1.69072266 -6.82697266 1.69072266 -5.5625 1.5625 C-4.73878906 1.48128906 -3.91507813 1.40007813 -3.06640625 1.31640625 C-1.01337975 1.21069185 -1.01337975 1.21069185 0 0 Z " fill="#849199" transform="translate(47,57)"/>
<path d="M0 0 C3.63 0 7.26 0 11 0 C11 0.99 11 1.98 11 3 C10.01 3.495 10.01 3.495 9 4 C9.99 4.33 10.98 4.66 12 5 C12 5.99 12 6.98 12 8 C8.04 8 4.08 8 0 8 C0 7.01 0 6.02 0 5 C0.66 4.67 1.32 4.34 2 4 C1.34 3.67 0.68 3.34 0 3 C0 2.01 0 1.02 0 0 Z " fill="#D84541" transform="translate(8,75)"/>
<path d="M0 0 C0.99 0 1.98 0 3 0 C3.350625 0.845625 3.70125 1.69125 4.0625 2.5625 C10.13103727 13.32925967 21.55902054 19.25967979 33 23 C33 23.33 33 23.66 33 24 C23.80035128 24.66204369 15.75717639 18.79509935 9 13 C5.43304899 9.62354914 2.58779163 6.17385746 0 2 C0 1.34 0 0.68 0 0 Z " fill="#403676" transform="translate(29,100)"/>
<path d="M0 0 C-0.020625 0.886875 -0.04125 1.77375 -0.0625 2.6875 C-0.00667897 5.64601466 0.18873077 8.1605577 1 11 C1.66 11.33 2.32 11.66 3 12 C1.29171079 14.10633718 0.47851584 14.93801608 -2.26171875 15.29296875 C-3.06222656 15.25816406 -3.86273438 15.22335938 -4.6875 15.1875 C-5.89986328 15.14689453 -5.89986328 15.14689453 -7.13671875 15.10546875 C-7.75160156 15.07066406 -8.36648437 15.03585938 -9 15 C-8.67 14.34 -8.34 13.68 -8 13 C-6.68 13 -5.36 13 -4 13 C-3.67 12.34 -3.34 11.68 -3 11 C-2.34 11.33 -1.68 11.66 -1 12 C-1.66 8.7 -2.32 5.4 -3 2 C-3.66 2 -4.32 2 -5 2 C-5.33 2.99 -5.66 3.98 -6 5 C-6 4.34 -6 3.68 -6 3 C-10.95 2.67 -15.9 2.34 -21 2 C-21 1.67 -21 1.34 -21 1 C-18.62515638 0.83079995 -16.25016522 0.66457137 -13.875 0.5 C-13.20984375 0.45230469 -12.5446875 0.40460938 -11.859375 0.35546875 C-7.89764586 0.08358538 -3.97061445 -0.04947806 0 0 Z " fill="#F5F2F3" transform="translate(90,125)"/>
<path d="M0 0 C4.38855677 1.72407587 6.91486937 4.82973873 9 9 C9.06996014 10.70702735 9.08440154 12.41668003 9.0625 14.125 C9.05347656 15.03507812 9.04445313 15.94515625 9.03515625 16.8828125 C9.02355469 17.58148438 9.01195313 18.28015625 9 19 C8.34 19.33 7.68 19.66 7 20 C6.90203125 19.32453125 6.8040625 18.6490625 6.703125 17.953125 C5.79574353 12.28551594 5.79574353 12.28551594 3 7.375 C1.12982952 5.81115706 1.12982952 5.81115706 -1 6 C-2.37310707 7.29233607 -3.71034824 8.62437146 -5 10 C-3.66511872 6.40608886 -2.03977277 3.24509304 0 0 Z " fill="#F3EFE0" transform="translate(55,60)"/>
<path d="M0 0 C1.32 0.33 2.64 0.66 4 1 C4 1.99 4 2.98 4 4 C5.98 3.67 7.96 3.34 10 3 C10.33 4.98 10.66 6.96 11 9 C9.68 7.68 8.36 6.36 7 5 C7.99 7.97 8.98 10.94 10 14 C8.02 14.33 6.04 14.66 4 15 C2.41459897 10.66657053 1.61447308 6.56465719 1 2 C0.67 1.34 0.34 0.68 0 0 Z " fill="#DA8C8C" transform="translate(88,124)"/>
<path d="M0 0 C0 1.65 0 3.3 0 5 C-4.26616316 6.13764351 -7.56486311 7 -12 7 C-12.33 7.66 -12.66 8.32 -13 9 C-13.33 7.02 -13.66 5.04 -14 3 C-9.43672206 -0.53286034 -5.50366792 -0.32374517 0 0 Z " fill="#F7F1F1" transform="translate(138,50)"/>
<path d="M0 0 C2.0625 0.1875 2.0625 0.1875 4 1 C4.33 1.99 4.66 2.98 5 4 C7.01508358 4.73323796 7.01508358 4.73323796 9 5 C9 5.66 9 6.32 9 7 C7.68 7.33 6.36 7.66 5 8 C5.33 8.99 5.66 9.98 6 11 C2.00544473 10.38545304 -0.74466336 8.29353263 -4 6 C-2.84826645 3.53199953 -1.95216435 1.95216435 0 0 Z " fill="#D94E4B" transform="translate(23,34)"/>
<path d="M0 0 C-11.50031646 5.70937696 -20.68673694 6.28353682 -33 3 C-33 2.67 -33 2.34 -33 2 C-27.74813079 1.28788214 -22.74008356 0.96979749 -17.4375 1.0625 C-11.86969898 1.12762048 -5.01747647 -1.67249216 0 0 Z " fill="#CFCDD9" transform="translate(112,106)"/>
<path d="M0 0 C3.7796034 0.51540046 6.61640188 1.30820094 10 3 C11.32 3 12.64 3 14 3 C13.34 5.97 12.68 8.94 12 12 C11.34 11.67 10.68 11.34 10 11 C10 10.34 10 9.68 10 9 C8.88625 8.566875 8.88625 8.566875 7.75 8.125 C6.8425 7.75375 5.935 7.3825 5 7 C4.2575 6.731875 3.515 6.46375 2.75 6.1875 C1 5 1 5 0.25 2.375 C0.1675 1.59125 0.085 0.8075 0 0 Z " fill="#F8F3F3" transform="translate(11,51)"/>
<path d="M0 0 C0.66 0.33 1.32 0.66 2 1 C-5.12680628 5.68332984 -11.15783453 9.54135707 -20 9 C-20 7.35 -20 5.7 -20 4 C-18.33710937 3.81824219 -18.33710937 3.81824219 -16.640625 3.6328125 C-15.17703766 3.46393704 -13.71349843 3.29464428 -12.25 3.125 C-11.52039063 3.04636719 -10.79078125 2.96773438 -10.0390625 2.88671875 C-6.26753062 2.44099226 -3.33287164 1.79586773 0 0 Z " fill="#F5F5F6" transform="translate(104,113)"/>
<path d="M0 0 C1.64542964 -0.05536025 3.29144284 -0.09338848 4.9375 -0.125 C5.85402344 -0.14820312 6.77054687 -0.17140625 7.71484375 -0.1953125 C10.44031531 -0.03327495 12.59948013 0.34569054 15.21875 1 C20.36472017 2.2174889 25.29782692 2.22542663 30.5625 2.125 C31.47580078 2.11597656 32.38910156 2.10695313 33.33007812 2.09765625 C35.55367319 2.07437253 37.77668677 2.0416771 40 2 C32.59186091 6.93875939 22.30959656 5.70022473 13.92578125 4.10546875 C9.26497968 3.14946247 4.62991992 2.09514473 0 1 C0 0.67 0 0.34 0 0 Z " fill="#4B427F" transform="translate(69,103)"/>
<path d="M0 0 C0.33 0 0.66 0 1 0 C1.02578125 1.1859375 1.0515625 2.371875 1.078125 3.59375 C1.42523505 14.5590133 2.88182662 24.48522931 6 35 C5.01 34.67 4.02 34.34 3 34 C3 33.34 3 32.68 3 32 C2.34 32 1.68 32 1 32 C-0.90640153 28.00176198 -1.1852641 25.00907248 -0.9765625 20.60546875 C-0.925 19.40341797 -0.8734375 18.20136719 -0.8203125 16.96289062 C-0.75585938 15.71701172 -0.69140625 14.47113281 -0.625 13.1875 C-0.56828125 11.92228516 -0.5115625 10.65707031 -0.453125 9.35351562 C-0.31191298 6.23508354 -0.16052192 3.11748795 0 0 Z " fill="#342971" transform="translate(6,67)"/>
<path d="M0 0 C-0.33 0.33 -0.66 0.66 -1 1 C-1.28101946 3.31952569 -1.44782625 5.63885514 -1.62109375 7.96875 C-1.74613281 8.6390625 -1.87117188 9.309375 -2 10 C-2.99 10.495 -2.99 10.495 -4 11 C-4 9.35 -4 7.7 -4 6 C-5.65 7.32 -7.3 8.64 -9 10 C-10.32 9.34 -11.64 8.68 -13 8 C-12.34 7.38125 -11.68 6.7625 -11 6.125 C-8.7715451 4.24362573 -8.7715451 4.24362573 -9 2 C-9.66 1.34 -10.32 0.68 -11 0 C-9.54263913 -0.19491452 -8.08405407 -0.38069358 -6.625 -0.5625 C-5.81289063 -0.66691406 -5.00078125 -0.77132812 -4.1640625 -0.87890625 C-2 -1 -2 -1 0 0 Z " fill="#818E96" transform="translate(50,41)"/>
<path d="M0 0 C-0.33 0.33 -0.66 0.66 -1 1 C-1.3931648 2.67884238 -1.74085452 4.36850045 -2.0625 6.0625 C-2.32740234 7.44115234 -2.32740234 7.44115234 -2.59765625 8.84765625 C-2.73042969 9.55792969 -2.86320312 10.26820312 -3 11 C-3.33 11 -3.66 11 -4 11 C-4 9.35 -4 7.7 -4 6 C-4.78375 6.825 -5.5675 7.65 -6.375 8.5 C-9 11 -9 11 -11 11 C-11.66 9.68 -12.32 8.36 -13 7 C-12.34 6.54625 -11.68 6.0925 -11 5.625 C-10.34 5.08875 -9.68 4.5525 -9 4 C-9 3.34 -9 2.68 -9 2 C-9.66 1.34 -10.32 0.68 -11 0 C-9.54263913 -0.19491452 -8.08405407 -0.38069358 -6.625 -0.5625 C-5.81289063 -0.66691406 -5.00078125 -0.77132813 -4.1640625 -0.87890625 C-2 -1 -2 -1 0 0 Z " fill="#818E96" transform="translate(66,30)"/>
<path d="M0 0 C3.46235909 3.03229765 4.9005345 5.6387166 6.3125 10 C6.65925781 11.03125 7.00601563 12.0625 7.36328125 13.125 C7.98838645 15.9475609 7.99350107 17.33357131 7 20 C7 19.34 7 18.68 7 18 C6.38125 17.690625 5.7625 17.38125 5.125 17.0625 C3.75 16.375 2.375 15.6875 1 15 C0.68758629 12.45058627 0.48696579 9.99638487 0.375 7.4375 C0.33632812 6.72658203 0.29765625 6.01566406 0.2578125 5.28320312 C0.16328217 3.52257575 0.08054183 1.76132272 0 0 Z " fill="#E9EDEC" transform="translate(117,49)"/>
<path d="M0 0 C1.77928621 3.0680236 2.24801919 5.27613751 2.23046875 8.80859375 C2.22853516 9.72060547 2.22660156 10.63261719 2.22460938 11.57226562 C2.21236328 12.51779297 2.20011719 13.46332031 2.1875 14.4375 C2.18685547 15.37916016 2.18621094 16.32082031 2.18554688 17.29101562 C2.15764567 21.68390488 1.96105824 25.69800612 1 30 C0.67 30 0.34 30 0 30 C-1.01946539 24.95121902 -1.15036701 20.12413591 -1.125 15 C-1.12886719 14.21882813 -1.13273438 13.43765625 -1.13671875 12.6328125 C-1.12944141 8.31007169 -0.85947175 4.25643155 0 0 Z " fill="#241864" transform="translate(4,60)"/>
<path d="M0 0 C1.29357422 0.07057617 1.29357422 0.07057617 2.61328125 0.14257812 C3.95326172 0.23249023 3.95326172 0.23249023 5.3203125 0.32421875 C6.20589844 0.37255859 7.09148437 0.42089844 8.00390625 0.47070312 C12.54576696 0.73807048 16.96996536 1.14766658 21.4453125 2.01171875 C21.4453125 2.34171875 21.4453125 2.67171875 21.4453125 3.01171875 C11.20523176 4.83217755 1.61133011 3.99879375 -8.5546875 2.01171875 C-5.51838534 0.24291933 -3.49487574 -0.20645293 0 0 Z " fill="#23185F" transform="translate(65.5546875,140.98828125)"/>
<path d="M0 0 C1.11375 0.1546875 1.11375 0.1546875 2.25 0.3125 C2.11237302 3.27148005 1.92947621 5.52045996 -0.046875 7.82421875 C-2.72126444 10.13452051 -4.14877478 11.3125 -7.75 11.3125 C-7.2542299 5.98297138 -6.0234775 0.68448608 0 0 Z " fill="#EDBA0D" transform="translate(93.75,84.6875)"/>
<path d="M0 0 C0.66 0.33 1.32 0.66 2 1 C2 1.99 2 2.98 2 4 C2.33 3.34 2.66 2.68 3 2 C3.66 2 4.32 2 5 2 C4.67 3.65 4.34 5.3 4 7 C4.433125 6.505 4.86625 6.01 5.3125 5.5 C7 4 7 4 10 4 C9.34 6.31 8.68 8.62 8 11 C3.87248551 10.39301257 0.6678852 8.96189209 -3 7 C-1.125 1.125 -1.125 1.125 0 0 Z " fill="#D6403C" transform="translate(16,44)"/>
<path d="M0 0 C0.66 0 1.32 0 2 0 C2 1.32 2 2.64 2 4 C1.34 4 0.68 4 0 4 C-0.20367187 4.77601562 -0.40734375 5.55203125 -0.6171875 6.3515625 C-2.53091129 11.40076595 -5.30346565 15.78591514 -8.125 20.375 C-8.68832031 21.30183594 -9.25164063 22.22867188 -9.83203125 23.18359375 C-11.21606043 25.45903155 -12.60548922 27.7309763 -14 30 C-15 27 -15 27 -13.73657227 24.1809082 C-13.10291748 23.06546631 -12.4692627 21.95002441 -11.81640625 20.80078125 C-11.48205063 20.20573288 -11.14769501 19.61068451 -10.8032074 18.99760437 C-9.7324091 17.09705011 -8.64771681 15.20485132 -7.5625 13.3125 C-6.83435773 12.0259158 -6.1071324 10.73881219 -5.38085938 9.45117188 C-3.59784271 6.2946835 -1.8022794 3.14553829 0 0 Z " fill="#4A3E6E" transform="translate(73,24)"/>
<path d="M0 0 C2.125 0.375 2.125 0.375 4 1 C4 1.66 4 2.32 4 3 C5.32 3.66 6.64 4.32 8 5 C7.67 6.65 7.34 8.3 7 10 C5.35 10.33 3.7 10.66 2 11 C1.67 10.01 1.34 9.02 1 8 C2.32 8 3.64 8 5 8 C5 7.34 5 6.68 5 6 C3.02 6.33 1.04 6.66 -1 7 C-1.625 4.625 -1.625 4.625 -2 2 C-1.34 1.34 -0.68 0.68 0 0 Z " fill="#D52D28" transform="translate(31,25)"/>
<path d="M0 0 C0.99 0.66 1.98 1.32 3 2 C6.12521833 2.16699232 6.12521833 2.16699232 9 2 C9 2.66 9 3.32 9 4 C7.68 4 6.36 4 5 4 C5.33 4.66 5.66 5.32 6 6 C8.02463255 6.65213292 8.02463255 6.65213292 10 7 C9.34 8.32 8.68 9.64 8 11 C7.34 11 6.68 11 6 11 C6 10.34 6 9.68 6 9 C4.824375 9.0928125 4.824375 9.0928125 3.625 9.1875 C2.325625 9.0946875 2.325625 9.0946875 1 9 C0.34 8.01 -0.32 7.02 -1 6 C-1.99 5.34 -2.98 4.68 -4 4 C-2.68 2.68 -1.36 1.36 0 0 Z " fill="#F9F3F3" transform="translate(27,29)"/>
<path d="M0 0 C9.57 0 19.14 0 29 0 C21.03289038 3.98355481 11.23766369 4.49360489 2.625 2 C1.75875 1.67 0.8925 1.34 0 1 C0 0.67 0 0.34 0 0 Z " fill="#F7F6F8" transform="translate(82,103)"/>
<path d="M0 0 C-0.33 1.65 -0.66 3.3 -1 5 C0.32 4.67 1.64 4.34 3 4 C1.549046 7.82524236 -0.38181932 9.19090966 -4 11 C-4.66 11 -5.32 11 -6 11 C-5.67 9.35 -5.34 7.7 -5 6 C-6.32 6.33 -7.64 6.66 -9 7 C-7.16766277 2.5718517 -4.96404317 0 0 0 Z " fill="#D8312C" transform="translate(126,34)"/>
<path d="M0 0 C3.16115776 1.36983503 3.9927092 1.9890638 6 5 C6.125 8.1875 6.125 8.1875 6 11 C5.01 11.495 5.01 11.495 4 12 C3.34 9.69 2.68 7.38 2 5 C1.01 5.66 0.02 6.32 -1 7 C-1.25015873 10.58357241 -1.25015873 10.58357241 -1 14 C-3.46468444 12.15148667 -3.96547258 11.2268945 -4.4375 8.125 C-3.90917428 4.35124488 -2.57702263 2.73808654 0 0 Z " fill="#F8F1DD" transform="translate(54,69)"/>
<path d="M0 0 C8.91 0 17.82 0 27 0 C20.5239326 4.31737827 12.87400514 3.8099864 5.296875 2.55078125 C3.51358407 2.0985438 1.75221331 1.56070826 0 1 C0 0.67 0 0.34 0 0 Z " fill="#F5F5F7" transform="translate(38,103)"/>
<path d="M0 0 C2.76276177 0.52268466 5.3260876 1.10869587 8 2 C13.69582423 2.31285626 19.17157371 2.00356825 24.80859375 1.15625 C29.54189127 0.81875998 34.29487785 1.49027843 39 2 C39 2.33 39 2.66 39 3 C36.02141273 3.33937108 33.04230315 3.67162259 30.0625 4 C29.23169922 4.09539062 28.40089844 4.19078125 27.54492188 4.2890625 C12.39816347 5.93929299 12.39816347 5.93929299 6.0625 3.625 C5.33160156 3.36976562 4.60070313 3.11453125 3.84765625 2.8515625 C2 2 2 2 0 0 Z " fill="#4E467E" transform="translate(40,108)"/>
<path d="M0 0 C0.66 0 1.32 0 2 0 C1.67 1.32 1.34 2.64 1 4 C2.65 4.33 4.3 4.66 6 5 C5.49701212 9.40114397 3.91227269 11.71195019 1 15 C0.22678118 12.01758453 -0.41196203 9.02419525 -1 6 C-1.99 6.66 -2.98 7.32 -4 8 C-2.87548273 5.0280615 -1.77706209 2.66559313 0 0 Z " fill="#D86462" transform="translate(43,120)"/>
<path d="M0 0 C0.33 1.65 0.66 3.3 1 5 C-2.66291938 7.47785723 -5.6109185 8.48964169 -10 9 C-10 8.01 -10 7.02 -10 6 C-7.69 5.34 -5.38 4.68 -3 4 C-5.64 4 -8.28 4 -11 4 C-11 3.34 -11 2.68 -11 2 C-7.17010894 0.19769832 -4.21878192 -0.19622241 0 0 Z " fill="#D73F3B" transform="translate(21,87)"/>
<path d="M0 0 C2.64 0 5.28 0 8 0 C8.12375 1.093125 8.2475 2.18625 8.375 3.3125 C8.75464801 7.07381802 8.75464801 7.07381802 11 10 C6.4864823 9.46899792 3.48177056 7.91497071 0 5 C-0.375 2.25 -0.375 2.25 0 0 Z " fill="#EFF5F2" transform="translate(102,60)"/>
<path d="M0 0 C3.3 0.66 6.6 1.32 10 2 C9.67 4.31 9.34 6.62 9 9 C8.34 9 7.68 9 7 9 C6.67 8.01 6.34 7.02 6 6 C5.01 6.33 4.02 6.66 3 7 C3 5.68 3 4.36 3 3 C2.34 3 1.68 3 1 3 C1 4.32 1 5.64 1 7 C0.01 7 -0.98 7 -2 7 C-1.34 4.69 -0.68 2.38 0 0 Z " fill="#D63632" transform="translate(128,87)"/>
<path d="M0 0 C11.88 0 23.76 0 36 0 C32.45986775 2.36008817 30.98878045 2.23463644 26.80078125 2.1953125 C25.59228516 2.18886719 24.38378906 2.18242188 23.13867188 2.17578125 C21.2447168 2.15064453 21.2447168 2.15064453 19.3125 2.125 C18.03826172 2.11597656 16.76402344 2.10695313 15.45117188 2.09765625 C12.30059373 2.07405641 9.15039017 2.04113194 6 2 C6.66 3.32 7.32 4.64 8 6 C5.125 5.25 5.125 5.25 2 4 C1.34 2.68 0.68 1.36 0 0 Z " fill="#C1BFCC" transform="translate(32,102)"/>
<path d="M0 0 C-0.55105909 3.9492568 -1.38935371 7.34920174 -3 11 C-3.66 11 -4.32 11 -5 11 C-5.33 9.68 -5.66 8.36 -6 7 C-7.65 6.67 -9.3 6.34 -11 6 C-7.88264342 2.55450062 -4.75616064 0 0 0 Z " fill="#D72F2B" transform="translate(118,26)"/>
<path d="M0 0 C0.33 0 0.66 0 1 0 C1 2.31 1 4.62 1 7 C0.31292969 7.04898438 -0.37414062 7.09796875 -1.08203125 7.1484375 C-1.98308594 7.22320312 -2.88414062 7.29796875 -3.8125 7.375 C-4.70582031 7.44460937 -5.59914062 7.51421875 -6.51953125 7.5859375 C-9.24398499 7.86645036 -9.24398499 7.86645036 -12 10 C-12 8.02 -12 6.04 -12 4 C-10.95199219 3.81824219 -10.95199219 3.81824219 -9.8828125 3.6328125 C-8.51769531 3.38144531 -8.51769531 3.38144531 -7.125 3.125 C-5.76761719 2.88136719 -5.76761719 2.88136719 -4.3828125 2.6328125 C-1.83494012 2.16955297 -1.83494012 2.16955297 0 0 Z " fill="#FBF6F6" transform="translate(140,68)"/>
<path d="M0 0 C1.31626692 3.61973402 2 6.09567131 2 10 C0.02 10.33 -1.96 10.66 -4 11 C-4.33 7.7 -4.66 4.4 -5 1 C-2 0 -2 0 0 0 Z " fill="#E3A19F" transform="translate(87,127)"/>
<path d="M0 0 C1.37478516 0.01740234 1.37478516 0.01740234 2.77734375 0.03515625 C3.69644531 0.04417969 4.61554688 0.05320312 5.5625 0.0625 C6.27277344 0.07410156 6.98304688 0.08570312 7.71484375 0.09765625 C7.71484375 0.75765625 7.71484375 1.41765625 7.71484375 2.09765625 C5.07484375 2.09765625 2.43484375 2.09765625 -0.28515625 2.09765625 C-0.28515625 3.08765625 -0.28515625 4.07765625 -0.28515625 5.09765625 C2.35484375 5.09765625 4.99484375 5.09765625 7.71484375 5.09765625 C7.71484375 5.75765625 7.71484375 6.41765625 7.71484375 7.09765625 C6.06909809 7.12453776 4.42322962 7.14399748 2.77734375 7.16015625 C1.86082031 7.17175781 0.94429687 7.18335937 0 7.1953125 C-2.28515625 7.09765625 -2.28515625 7.09765625 -3.28515625 6.09765625 C-3.41015625 3.59765625 -3.41015625 3.59765625 -3.28515625 1.09765625 C-2.28515625 0.09765625 -2.28515625 0.09765625 0 0 Z " fill="#D6322D" transform="translate(132.28515625,75.90234375)"/>
<path d="M0 0 C1.98 0.66 3.96 1.32 6 2 C6 2.66 6 3.32 6 4 C5.01 4.33 4.02 4.66 3 5 C3.33 5.99 3.66 6.98 4 8 C3.360625 8.12375 2.72125 8.2475 2.0625 8.375 C1.381875 8.58125 0.70125 8.7875 0 9 C-0.33 9.66 -0.66 10.32 -1 11 C-1.66 11 -2.32 11 -3 11 C-2.53199289 6.94393835 -2.12046792 3.53411321 0 0 Z " fill="#D73934" transform="translate(94,13)"/>
<path d="M0 0 C3.3 1.65 6.6 3.3 10 5 C10 5.99 10 6.98 10 8 C6.04 8 2.08 8 -2 8 C-2 7.34 -2 6.68 -2 6 C-0.35 5.67 1.3 5.34 3 5 C2.01 4.34 1.02 3.68 0 3 C0 2.01 0 1.02 0 0 Z " fill="#D62F2B" transform="translate(11,55)"/>
<path d="M0 0 C0.66 0 1.32 0 2 0 C2.66 0.99 3.32 1.98 4 3 C4.66 2.01 5.32 1.02 6 0 C6.93065133 2.60582371 7.14917407 3.64198224 6.0625 6.25 C5.5365625 7.11625 5.5365625 7.11625 5 8 C6.65 7.67 8.3 7.34 10 7 C10.33 7.99 10.66 8.98 11 10 C8.09399739 11.25664978 6.20395416 12 3 12 C2.34 11.34 1.68 10.68 1 10 C1.66 9.67 2.32 9.34 3 9 C2.690625 8.071875 2.38125 7.14375 2.0625 6.1875 C1.375 4.125 0.6875 2.0625 0 0 Z " fill="#382B72" transform="translate(99,126)"/>
<path d="M0 0 C4.875 3.75 4.875 3.75 6 6 C6.54903034 11.70991556 5.51369551 14.49807763 2 19 C1.34 18.67 0.68 18.34 0 18 C0.495 17.46375 0.99 16.9275 1.5 16.375 C3.47945017 13.24087057 3.58503961 11.65649759 3 8 C1.51559883 5.73216487 -0.11590735 3.97829728 -2 2 C-1.34 1.34 -0.68 0.68 0 0 Z " fill="#EEC730" transform="translate(56,66)"/>
<path d="M0 0 C2.40994015 3.61491023 2.75176686 6.59570656 3.4375 10.8203125 C3.623125 11.53960937 3.80875 12.25890625 4 13 C4.66 13.33 5.32 13.66 6 14 C4.68 15.32 3.36 16.64 2 18 C-0.1583195 11.92972642 -0.20852314 6.40629424 0 0 Z " fill="#1E924C" transform="translate(116,80)"/>
<path d="M0 0 C2.15377564 2.62198774 3.40072174 4.64404172 4 8 C1 10 1 10 -2 10 C-3.25664978 7.09399739 -4 5.20395416 -4 2 C-3.01 2 -2.02 2 -1 2 C-0.67 1.34 -0.34 0.68 0 0 Z " fill="#E9CCCD" transform="translate(99,127)"/>
<path d="M0 0 C2.875 -0.125 2.875 -0.125 6 0 C8 2 8 2 8.125 4.625 C8.08375 5.40875 8.0425 6.1925 8 7 C6.68 7.33 5.36 7.66 4 8 C4 6.02 4 4.04 4 2 C3.34 2 2.68 2 2 2 C2 3.98 2 5.96 2 8 C1.87625 7.360625 1.7525 6.72125 1.625 6.0625 C1.315625 5.0415625 1.315625 5.0415625 1 4 C0.34 3.67 -0.32 3.34 -1 3 C-0.67 2.01 -0.34 1.02 0 0 Z " fill="#D88786" transform="translate(66,115)"/>
<path d="M0 0 C2.42578125 -0.36328125 2.42578125 -0.36328125 5.3125 -0.3125 C6.72982422 -0.30669922 6.72982422 -0.30669922 8.17578125 -0.30078125 C11.10818162 0.01152142 13.32934949 0.77899221 16 2 C16 2.33 16 2.66 16 3 C10.06 3 4.12 3 -2 3 C-1.34 2.01 -0.68 1.02 0 0 Z " fill="#F2F2F3" transform="translate(68,105)"/>
<path d="M0 0 C1.65 0 3.3 0 5 0 C6 1 6 1 6.0625 3.5625 C6.041875 4.366875 6.02125 5.17125 6 6 C4.68 6 3.36 6 2 6 C2 7.32 2 8.64 2 10 C1.34 10 0.68 10 0 10 C0 6.7 0 3.4 0 0 Z " fill="#DB6C69" transform="translate(68,128)"/>
<path d="M0 0 C-2.05233685 2.2477975 -3.00667261 3.0022242 -6 4 C-8.04400516 3.96399449 -10.08730596 3.85198855 -12.125 3.6875 C-13.73761719 3.56955078 -13.73761719 3.56955078 -15.3828125 3.44921875 C-16.67832031 3.22685547 -16.67832031 3.22685547 -18 3 C-18.33 2.34 -18.66 1.68 -19 1 C-17.64455078 0.90912109 -17.64455078 0.90912109 -16.26171875 0.81640625 C-14.49248047 0.69072266 -14.49248047 0.69072266 -12.6875 0.5625 C-10.92986328 0.44068359 -10.92986328 0.44068359 -9.13671875 0.31640625 C-1.39388145 -0.46462715 -1.39388145 -0.46462715 0 0 Z " fill="#D6D4DE" transform="translate(105,112)"/>
<path d="M0 0 C0.99 0.33 1.98 0.66 3 1 C3.33 2.98 3.66 4.96 4 7 C3.113125 6.979375 2.22625 6.95875 1.3125 6.9375 C-1.62169631 6.99286219 -4.15493696 7.3305734 -7 8 C-6.67 7.01 -6.34 6.02 -6 5 C-2.9375 3.8125 -2.9375 3.8125 0 3 C0 2.01 0 1.02 0 0 Z " fill="#D83F3A" transform="translate(131,44)"/>
<path d="M0 0 C3.08914085 0.33097938 4.0026931 1.00284699 6.1875 3.3125 C7.79407709 5.69466602 8.58574686 7.20379133 9 10 C6.75 9.9375 6.75 9.9375 4 9 C1.9101187 6.34257905 0 3.46449449 0 0 Z " fill="#E5EBE9" transform="translate(85,41)"/>
<path d="M0 0 C0.66 0 1.32 0 2 0 C1.67 3.63 1.34 7.26 1 11 C-2 10 -2 10 -3.16796875 8.15234375 C-3.50441406 7.42144531 -3.84085938 6.69054687 -4.1875 5.9375 C-4.53167969 5.20402344 -4.87585937 4.47054688 -5.23046875 3.71484375 C-5.48441406 3.14894531 -5.73835938 2.58304688 -6 2 C-4.68 2.33 -3.36 2.66 -2 3 C-1.34 2.01 -0.68 1.02 0 0 Z " fill="#D63A35" transform="translate(61,11)"/>
<path d="M0 0 C0.78375 0.04125 1.5675 0.0825 2.375 0.125 C2.705 1.775 3.035 3.425 3.375 5.125 C2.715 4.465 2.055 3.805 1.375 3.125 C0.385 3.125 -0.605 3.125 -1.625 3.125 C-1.955 5.105 -2.285 7.085 -2.625 9.125 C-1.305 9.125 0.015 9.125 1.375 9.125 C1.375 9.785 1.375 10.445 1.375 11.125 C-3.5 10.25 -3.5 10.25 -4.625 9.125 C-4.8125 5.6875 -4.8125 5.6875 -4.625 2.125 C-2.625 0.125 -2.625 0.125 0 0 Z " fill="#D53835" transform="translate(83.625,10.875)"/>
<path d="M0 0 C-1.31224548 3.93673644 -2.91910327 6.22719294 -6 9 C-6 7.35 -6 5.7 -6 4 C-7.32 3.67 -8.64 3.34 -10 3 C-6.27034861 0.96564469 -4.33094958 0 0 0 Z " fill="#D85754" transform="translate(33,110)"/>
<path d="M0 0 C0.33 3.63 0.66 7.26 1 11 C0.34 11 -0.32 11 -1 11 C-1.433125 10.030625 -1.86625 9.06125 -2.3125 8.0625 C-3.7014861 4.72268235 -3.7014861 4.72268235 -7 4 C-7 3.34 -7 2.68 -7 2 C-4.35261084 0.5393715 -3.10551666 0 0 0 Z " fill="#D63733" transform="translate(51,15)"/>
<path d="M0 0 C2 2 2 2 2.1953125 5.4765625 C2.18201493 6.85950968 2.15816232 8.24238654 2.125 9.625 C2.11597656 10.33140625 2.10695313 11.0378125 2.09765625 11.765625 C2.07407603 13.51056098 2.03820461 15.25532295 2 17 C0.02 17 -1.96 17 -4 17 C-2.68 16.67 -1.36 16.34 0 16 C0.27614086 10.56922978 0.32445447 7.52125808 -3 3 C-3.33 2.34 -3.66 1.68 -4 1 C-2.125 0.375 -2.125 0.375 0 0 Z " fill="#7DB091" transform="translate(116,47)"/>
<path d="M0 0 C-7.53146548 4.46309065 -14.40858218 4.43995881 -23 4 C-23 3.67 -23 3.34 -23 3 C-21.83984375 2.81824219 -21.83984375 2.81824219 -20.65625 2.6328125 C-13.49273544 1.48086547 -13.49273544 1.48086547 -6.4375 -0.1875 C-3 -1 -3 -1 0 0 Z " fill="#F0EFF1" transform="translate(112,106)"/>
<path d="M0 0 C0.99 0.33 1.98 0.66 3 1 C2.34 1 1.68 1 1 1 C1 1.66 1 2.32 1 3 C5.455 2.505 5.455 2.505 10 2 C7 5 7 5 4.3125 5.1875 C3.1678125 5.0946875 3.1678125 5.0946875 2 5 C2 5.99 2 6.98 2 8 C2.66 8.33 3.32 8.66 4 9 C3.01 9 2.02 9 1 9 C0.63877119 7.68942607 0.28619689 6.37646376 -0.0625 5.0625 C-0.35833984 3.96615234 -0.35833984 3.96615234 -0.66015625 2.84765625 C-0.77230469 2.23792969 -0.88445313 1.62820312 -1 1 C-0.67 0.67 -0.34 0.34 0 0 Z " fill="#EDDADA" transform="translate(9,88)"/>
<path d="M0 0 C0.33 0 0.66 0 1 0 C1.04898437 1.0621875 1.09796875 2.124375 1.1484375 3.21875 C1.68360215 13.74501287 1.68360215 13.74501287 4 24 C3.01 23.67 2.02 23.34 1 23 C-1.62217335 15.26458862 -0.84500061 8.02750584 0 0 Z " fill="#6E6697" transform="translate(23,69)"/>
<path d="M0 0 C0.66 0 1.32 0 2 0 C2 0.66 2 1.32 2 2 C4.31 2.33 6.62 2.66 9 3 C9 3.99 9 4.98 9 6 C6.03 6 3.06 6 0 6 C0 4.02 0 2.04 0 0 Z " fill="#DDEBE4" transform="translate(96,44)"/>
<path d="M0 0 C2.31 0.66 4.62 1.32 7 2 C7 2.66 7 3.32 7 4 C5.68 4.33 4.36 4.66 3 5 C3.33 5.99 3.66 6.98 4 8 C2.68 7.67 1.36 7.34 0 7 C-1.125 2.25 -1.125 2.25 0 0 Z " fill="#D63834" transform="translate(25,37)"/>
<path d="M0 0 C0.99 0 1.98 0 3 0 C3.33 0.66 3.66 1.32 4 2 C5.32 1.34 6.64 0.68 8 0 C8 1.65 8 3.3 8 5 C5.36 5.33 2.72 5.66 0 6 C0 4.02 0 2.04 0 0 Z " fill="#D76B68" transform="translate(75,117)"/>
<path d="M0 0 C-0.99 1.485 -0.99 1.485 -2 3 C-4.06298828 3.2487793 -4.06298828 3.2487793 -6.5703125 3.07421875 C-7.46621094 3.01943359 -8.36210938 2.96464844 -9.28515625 2.90820312 C-10.22230469 2.83537109 -11.15945312 2.76253906 -12.125 2.6875 C-13.06988281 2.62626953 -14.01476562 2.56503906 -14.98828125 2.50195312 C-17.32681186 2.34841324 -19.66342389 2.18053924 -22 2 C-22 1.67 -22 1.34 -22 1 C-19.45847098 0.83096719 -16.91681012 0.66470573 -14.375 0.5 C-13.30572266 0.42845703 -13.30572266 0.42845703 -12.21484375 0.35546875 C-8.13492439 0.09345558 -4.09108781 -0.05162256 0 0 Z " fill="#3C317A" transform="translate(90,140)"/>
<path d="M0 0 C-0.66 1.32 -1.32 2.64 -2 4 C-2.33 3.34 -2.66 2.68 -3 2 C-3.66 2 -4.32 2 -5 2 C-5.33 2.99 -5.66 3.98 -6 5 C-6 4.34 -6 3.68 -6 3 C-10.95 2.67 -15.9 2.34 -21 2 C-21 1.67 -21 1.34 -21 1 C-18.62515638 0.83079995 -16.25016522 0.66457137 -13.875 0.5 C-13.20984375 0.45230469 -12.5446875 0.40460938 -11.859375 0.35546875 C-7.89764586 0.08358538 -3.97061445 -0.04947806 0 0 Z " fill="#E0DEE2" transform="translate(90,125)"/>
<path d="M0 0 C0.66 0.99 1.32 1.98 2 3 C-5.51871307 11.92711753 -5.51871307 11.92711753 -10 15 C-10.66 15 -11.32 15 -12 15 C-10.86086621 11.58259864 -9.86587863 10.84380651 -7.125 8.625 C-4.02359561 6.00714791 -1.79689035 3.70608635 0 0 Z " fill="#493F82" transform="translate(116,102)"/>
<path d="M0 0 C0.33 0 0.66 0 1 0 C1.33 7.92 1.66 15.84 2 24 C1.01 23.67 0.02 23.34 -1 23 C-0.67 15.41 -0.34 7.82 0 0 Z " fill="#5D548F" transform="translate(6,67)"/>
<path d="M0 0 C5.61 0.33 11.22 0.66 17 1 C17 1.33 17 1.66 17 2 C13.04 2 9.08 2 5 2 C5 3.65 5 5.3 5 7 C6.65 7 8.3 7 10 7 C7.35261084 8.4606285 6.10551666 9 3 9 C3.0928125 7.329375 3.0928125 7.329375 3.1875 5.625 C3.125625 4.42875 3.06375 3.2325 3 2 C2.01 1.34 1.02 0.68 0 0 Z " fill="#CABEC8" transform="translate(79,115)"/>
<path d="M0 0 C3.63 0 7.26 0 11 0 C11 0.99 11 1.98 11 3 C7.37 3 3.74 3 0 3 C0 2.01 0 1.02 0 0 Z " fill="#D74B47" transform="translate(8,68)"/>
<path d="M0 0 C0 3 0 3 -2 6 C-3.66666667 7.66666667 -5.33333333 9.33333333 -7 11 C-8.35555293 12.64864545 -9.69631653 14.31003995 -11 16 C-11.66 15.67 -12.32 15.34 -13 15 C-9.09489511 9.49280079 -4.90282356 4.64172645 0 0 Z " fill="#DED0D6" transform="translate(30,24)"/>
<path d="M0 0 C0.75732422 0.04833984 1.51464844 0.09667969 2.29492188 0.14648438 C3.08060547 0.20255859 3.86628906 0.25863281 4.67578125 0.31640625 C5.47306641 0.36861328 6.27035156 0.42082031 7.09179688 0.47460938 C9.05764647 0.60409647 11.0230179 0.74080666 12.98828125 0.87890625 C12.98828125 1.20890625 12.98828125 1.53890625 12.98828125 1.87890625 C-1.07061088 4.27190917 -1.07061088 4.27190917 -7.01171875 0.87890625 C-4.18726283 -0.06257906 -2.87000257 -0.1942107 0 0 Z " fill="#5F578B" transform="translate(66.01171875,123.12109375)"/>
<path d="M0 0 C2.0625 0.4375 2.0625 0.4375 4 1 C3.67 2.98 3.34 4.96 3 7 C1.68 7 0.36 7 -1 7 C-1.04254356 5.00045254 -1.04080783 2.99958364 -1 1 C-0.67 0.67 -0.34 0.34 0 0 Z " fill="#D86663" transform="translate(57,129)"/>
<path d="M0 0 C6.625 -0.25 6.625 -0.25 10 2 C9.01 2.99 8.02 3.98 7 5 C6.67 4.01 6.34 3.02 6 2 C5.01 2 4.02 2 3 2 C3 2.99 3 3.98 3 5 C3.66 5.33 4.32 5.66 5 6 C4.34 6 3.68 6 3 6 C3 6.66 3 7.32 3 8 C2.34 7.67 1.68 7.34 1 7 C1.020625 6.21625 1.04125 5.4325 1.0625 4.625 C1.18684063 2.01885039 1.18684063 2.01885039 0 0 Z " fill="#F2E5E3" transform="translate(72,115)"/>
<path d="M0 0 C0 0.99 0 1.98 0 3 C-3.63 3.66 -7.26 4.32 -11 5 C-11 4.01 -11 3.02 -11 2 C-3.375 0 -3.375 0 0 0 Z " fill="#D84642" transform="translate(138,55)"/>
<path d="M0 0 C-0.99 0 -1.98 0 -3 0 C-3.33 0.99 -3.66 1.98 -4 3 C-4 2.34 -4 1.68 -4 1 C-6.33075929 1.95865509 -6.33075929 1.95865509 -8 5 C-11.37462715 4.45276317 -13.08235 3.9451 -16 2 C-14.08654673 1.46748234 -12.1690705 0.94940517 -10.25 0.4375 C-9.18265625 0.14746094 -8.1153125 -0.14257812 -7.015625 -0.44140625 C-4.15664073 -0.97098494 -2.68402617 -0.98370862 0 0 Z " fill="#D1BDC4" transform="translate(67,10)"/>
<path d="M0 0 C4.04131267 1.34710422 4.90288434 3.38428334 7 7 C7 7.99 7 8.98 7 10 C3.17398693 8.54875366 1.77670876 6.64225296 0 3 C0 2.01 0 1.02 0 0 Z " fill="#D5403C" transform="translate(38,20)"/>
<path d="M0 0 C0.66 0 1.32 0 2 0 C2 0.66 2 1.32 2 2 C3.32 2 4.64 2 6 2 C5.67 3.65 5.34 5.3 5 7 C4.01 6.67 3.02 6.34 2 6 C2 5.67 2 5.34 2 5 C1.01 4.67 0.02 4.34 -1 4 C-0.67 2.68 -0.34 1.36 0 0 Z " fill="#D8625F" transform="translate(119,110)"/>
<path d="M0 0 C0.66 0 1.32 0 2 0 C3.35439668 2.70879335 3.06501451 5.00933268 3 8 C2.67 7.01 2.34 6.02 2 5 C1.34 5 0.68 5 0 5 C-0.33 6.32 -0.66 7.64 -1 9 C-1.625 5.625 -1.625 5.625 -2 2 C-1.34 1.34 -0.68 0.68 0 0 Z " fill="#D75350" transform="translate(54,74)"/>
<path d="M0 0 C0.66 0 1.32 0 2 0 C2.70226141 1.24176695 3.38629109 2.49385599 4.0625 3.75 C4.44535156 4.44609375 4.82820313 5.1421875 5.22265625 5.859375 C6.1312406 8.36140628 5.88336837 9.5332355 5 12 C-0.27293578 5.04931193 -0.27293578 5.04931193 0 0 Z " fill="#4D4D79" transform="translate(90,51)"/>
<path d="M0 0 C0.33 0 0.66 0 1 0 C2.40913826 5.63655304 1.73956036 8.44153116 -1.08984375 13.49609375 C-1.39019531 13.99238281 -1.69054688 14.48867188 -2 15 C-2.66 14.67 -3.32 14.34 -4 14 C-3.67 11.03 -3.34 8.06 -3 5 C-2.34 5.66 -1.68 6.32 -1 7 C-0.67 4.69 -0.34 2.38 0 0 Z " fill="#CBCDD2" transform="translate(64,31)"/>
<path d="M0 0 C0.66 0 1.32 0 2 0 C2 0.66 2 1.32 2 2 C2.66 2 3.32 2 4 2 C3.75 3.875 3.75 3.875 3 6 C0.9375 7.25 0.9375 7.25 -1 8 C-0.01 6.35 0.98 4.7 2 3 C1.38125 3.495 0.7625 3.99 0.125 4.5 C-2 6 -2 6 -4 6 C-4 5.34 -4 4.68 -4 4 C-3.34 4 -2.68 4 -2 4 C-1.34 2.68 -0.68 1.36 0 0 Z " fill="#D95F5C" transform="translate(33,115)"/>
<path d="M0 0 C2 2 4 4 6 6 C6.66 5.34 7.32 4.68 8 4 C8.33 4.99 8.66 5.98 9 7 C8.34 7.66 7.68 8.32 7 9 C5.68 9 4.36 9 3 9 C0 3.375 0 3.375 0 0 Z " fill="#52497D" transform="translate(25,92)"/>
<path d="M0 0 C0.66 0.66 1.32 1.32 2 2 C1.37755401 3.27208622 0.75193233 4.54261882 0.125 5.8125 C-0.22304688 6.52019531 -0.57109375 7.22789063 -0.9296875 7.95703125 C-2 10 -2 10 -4 13 C-5.0169313 10.34501768 -5.13022151 9.30844625 -4.00390625 6.640625 C-3.52824219 5.85171875 -3.05257813 5.0628125 -2.5625 4.25 C-2.08941406 3.45078125 -1.61632812 2.6515625 -1.12890625 1.828125 C-0.75636719 1.22484375 -0.38382813 0.6215625 0 0 Z " fill="#514784" transform="translate(29,47)"/>
<path d="M0 0 C0.99 0 1.98 0 3 0 C3.8125 1.6875 3.8125 1.6875 4 4 C1.5625 6.75 1.5625 6.75 -1 9 C-1.66 8.34 -2.32 7.68 -3 7 C-2.34 7 -1.68 7 -1 7 C-1.66 5.68 -2.32 4.36 -3 3 C-1.35 3 0.3 3 2 3 C2 2.34 2 1.68 2 1 C1.34 0.67 0.68 0.34 0 0 Z " fill="#E7D4D6" transform="translate(30,38)"/>
<path d="M0 0 C-2.85410334 1.50560497 -5.68124642 2.63216796 -8.75 3.625 C-9.54921875 3.88539062 -10.3484375 4.14578125 -11.171875 4.4140625 C-11.77515625 4.60742188 -12.3784375 4.80078125 -13 5 C-13.66 4.34 -14.32 3.68 -15 3 C-5.77448747 -1.77676538 -5.77448747 -1.77676538 0 0 Z " fill="#5A528A" transform="translate(63,26)"/>
<path d="M0 0 C0.33 0.66 0.66 1.32 1 2 C2.32 2 3.64 2 5 2 C5 4.31 5 6.62 5 9 C4.67 9 4.34 9 4 9 C4 7.35 4 5.7 4 4 C3.34 4 2.68 4 2 4 C2 5.65 2 7.3 2 9 C1.34 9 0.68 9 0 9 C0 6.03 0 3.06 0 0 Z " fill="#D44F4B" transform="translate(76,129)"/>
<path d="M0 0 C1.03930664 0.07831055 1.03930664 0.07831055 2.09960938 0.15820312 C3.79604437 0.28689819 5.49184863 0.42386184 7.1875 0.5625 C7.1875 0.8925 7.1875 1.2225 7.1875 1.5625 C4.41714291 1.78412857 1.64711005 1.99029249 -1.125 2.1875 C-1.91068359 2.25195312 -2.69636719 2.31640625 -3.50585938 2.3828125 C-4.26318359 2.434375 -5.02050781 2.4859375 -5.80078125 2.5390625 C-6.49727783 2.59143066 -7.19377441 2.64379883 -7.91137695 2.69775391 C-9.8125 2.5625 -9.8125 2.5625 -12.8125 0.5625 C-8.46757229 -0.57646163 -4.42629215 -0.36850471 0 0 Z " fill="#6A6392" transform="translate(71.8125,109.4375)"/>
<path d="M0 0 C2.31 0 4.62 0 7 0 C7 0.99 7 1.98 7 3 C7.33 3.99 7.66 4.98 8 6 C2.33846154 4.52307692 2.33846154 4.52307692 0.625 1.875 C0.41875 1.25625 0.2125 0.6375 0 0 Z " fill="#B7B6C0" transform="translate(32,102)"/>
<path d="M0 0 C2 3 2 3 2 6 C3.43750191 7.68798827 3.43750191 7.68798827 5 9 C2.69 9 0.38 9 -2 9 C-1.34 6.03 -0.68 3.06 0 0 Z " fill="#E1D0D4" transform="translate(10,52)"/>
<path d="M0 0 C-0.66 2.31 -1.32 4.62 -2 7 C-3.65 6.67 -5.3 6.34 -7 6 C-7 4 -7 4 -5.1875 1.875 C-3 0 -3 0 0 0 Z " fill="#D74844" transform="translate(26,48)"/>
<path d="M0 0 C3.55780196 0.60990891 6.6828589 1.5783681 10 3 C9.360625 3.28875 8.72125 3.5775 8.0625 3.875 C5.84793921 4.82823451 5.84793921 4.82823451 5 7 C4.34 7 3.68 7 3 7 C3 5.35 3 3.7 3 2 C2.01 1.67 1.02 1.34 0 1 C0 0.67 0 0.34 0 0 Z " fill="#CFDED7" transform="translate(88,27)"/>
<path d="M0 0 C0.33 0.66 0.66 1.32 1 2 C0.67 2.99 0.34 3.98 0 5 C0.66 5 1.32 5 2 5 C2.33 3.68 2.66 2.36 3 1 C3.66 1 4.32 1 5 1 C4.34 2.98 3.68 4.96 3 7 C1.35 6.67 -0.3 6.34 -2 6 C-1.125 1.125 -1.125 1.125 0 0 Z " fill="#D75654" transform="translate(51,127)"/>
<path d="M0 0 C1.32 0 2.64 0 4 0 C4.66 1.65 5.32 3.3 6 5 C4.68 4.34 3.36 3.68 2 3 C2.66 4.32 3.32 5.64 4 7 C2.0625 6.25 2.0625 6.25 0 5 C-0.8125 2.9375 -0.8125 2.9375 -1 1 C-0.67 0.67 -0.34 0.34 0 0 Z " fill="#D35552" transform="translate(109,119)"/>
<path d="M0 0 C2.475 0.495 2.475 0.495 5 1 C5 1.66 5 2.32 5 3 C5.33 3.99 5.66 4.98 6 6 C4.35 5.67 2.7 5.34 1 5 C0.67 3.35 0.34 1.7 0 0 Z " fill="#D65652" transform="translate(114,115)"/>
<path d="M0 0 C2.5625 2.25 2.5625 2.25 5 5 C4.8125 7.3125 4.8125 7.3125 4 9 C4 8.34 4 7.68 4 7 C2.68 7.33 1.36 7.66 0 8 C0.33 6.35 0.66 4.7 1 3 C0.34 2.67 -0.32 2.34 -1 2 C-0.67 1.34 -0.34 0.68 0 0 Z " fill="#DEC1C3" transform="translate(125,31)"/>
<path d="M0 0 C1.40182371 2.61673759 2.60495559 5.0371669 3 8 C2.34 8.66 1.68 9.32 1 10 C-1.125 9.625 -1.125 9.625 -3 9 C-2.01 9 -1.02 9 0 9 C-0.185625 8.2575 -0.37125 7.515 -0.5625 6.75 C-0.99203108 4.05009037 -0.85122974 2.55368923 0 0 Z " fill="#DEB8BB" transform="translate(61,130)"/>
<path d="M0 0 C0.66 0 1.32 0 2 0 C2.66 0.99 3.32 1.98 4 3 C4.66 2.01 5.32 1.02 6 0 C6.6875 1.75 6.6875 1.75 7 4 C5.5625 6.25 5.5625 6.25 4 8 C2.68 5.36 1.36 2.72 0 0 Z " fill="#D34744" transform="translate(99,126)"/>
<path d="M0 0 C0.33 0.66 0.66 1.32 1 2 C1.99 2.33 2.98 2.66 4 3 C3.34 3 2.68 3 2 3 C1.34 5.31 0.68 7.62 0 10 C-0.66 10 -1.32 10 -2 10 C-1.34 6.7 -0.68 3.4 0 0 Z " fill="#E3D1D5" transform="translate(126,84)"/>
<path d="M0 0 C0.625 1.875 0.625 1.875 1 4 C0.34 4.66 -0.32 5.32 -1 6 C-3.625 5.625 -3.625 5.625 -6 5 C-6 4.34 -6 3.68 -6 3 C-4.68 3 -3.36 3 -2 3 C-1.67 2.34 -1.34 1.68 -1 1 C-0.67 0.67 -0.34 0.34 0 0 Z " fill="#D74844" transform="translate(38,30)"/>
<path d="M0 0 C0.79921875 0.11085938 1.5984375 0.22171875 2.421875 0.3359375 C3.32679687 0.47902344 3.32679687 0.47902344 4.25 0.625 C4.25 0.955 4.25 1.285 4.25 1.625 C1.94 1.955 -0.37 2.285 -2.75 2.625 C-2.75 2.955 -2.75 3.285 -2.75 3.625 C-4.4 3.625 -6.05 3.625 -7.75 3.625 C-8.08 2.965 -8.41 2.305 -8.75 1.625 C-5.5750906 -0.2828584 -3.64414789 -0.5359041 0 0 Z " fill="#D6D7DA" transform="translate(59.75,28.375)"/>
<path d="M0 0 C0.66 0.33 1.32 0.66 2 1 C1.67 2.32 1.34 3.64 1 5 C0.34 5 -0.32 5 -1 5 C-2.33783393 5.31478446 -3.67203709 5.64587656 -5 6 C-5 5.01 -5 4.02 -5 3 C-2.625 1.25 -2.625 1.25 0 0 Z " fill="#D74743" transform="translate(113,27)"/>
<path d="M0 0 C0.99 0.66 1.98 1.32 3 2 C0.53846154 7.66153846 0.53846154 7.66153846 -2.1875 9.375 C-2.785625 9.58125 -3.38375 9.7875 -4 10 C-2.66666667 6.66666667 -1.33333333 3.33333333 0 0 Z " fill="#EDD5D4" transform="translate(49,125)"/>
<path d="M0 0 C1.7074998 1.28062485 3.37373596 2.61767557 5 4 C5 4.66 5 5.32 5 6 C4.01 6.33 3.02 6.66 2 7 C0.68 5.35 -0.64 3.7 -2 2 C-1.34 1.34 -0.68 0.68 0 0 Z " fill="#EEC224" transform="translate(56,66)"/>
<path d="M0 0 C0.66 0 1.32 0 2 0 C2 4 2 4 0.125 6.25 C-2 8 -2 8 -4 8 C-2.87548273 5.0280615 -1.77706209 2.66559313 0 0 Z " fill="#D95D59" transform="translate(39,118)"/>
<path d="M0 0 C1.32 0 2.64 0 4 0 C3.67 1.65 3.34 3.3 3 5 C1.68 4.34 0.36 3.68 -1 3 C-0.67 2.01 -0.34 1.02 0 0 Z " fill="#D84844" transform="translate(20,102)"/>
<path d="M0 0 C1.32 0 2.64 0 4 0 C4.12375 0.78375 4.2475 1.5675 4.375 2.375 C4.79117993 5.14057822 4.79117993 5.14057822 7 7 C6.01 7 5.02 7 4 7 C0 1.62857143 0 1.62857143 0 0 Z " fill="#69A580" transform="translate(98,60)"/>
<path d="M0 0 C0.66 0.33 1.32 0.66 2 1 C0.8125 3.4375 0.8125 3.4375 -1 6 C-3.6875 6.8125 -3.6875 6.8125 -6 7 C-4.60667426 3.63279613 -3.0210714 2.0140476 0 0 Z " fill="#D73C37" transform="translate(123,34)"/>
<path d="M0 0 C2.0625 0.4375 2.0625 0.4375 4 1 C4 1.66 4 2.32 4 3 C4.66 3.33 5.32 3.66 6 4 C4.02 4.33 2.04 4.66 0 5 C-0.5625 3.0625 -0.5625 3.0625 -1 1 C-0.67 0.67 -0.34 0.34 0 0 Z " fill="#D95652" transform="translate(31,25)"/>
<path d="M0 0 C3.3 0.33 6.6 0.66 10 1 C10 1.33 10 1.66 10 2 C6.37 2.33 2.74 2.66 -1 3 C-0.67 2.01 -0.34 1.02 0 0 Z " fill="#1B134E" transform="translate(77,142)"/>
<path d="M0 0 C0.66 0.66 1.32 1.32 2 2 C-0.31 2.33 -2.62 2.66 -5 3 C-5 2.34 -5 1.68 -5 1 C-5.66 0.67 -6.32 0.34 -7 0 C-3.85179059 -1.04940314 -3.00659136 -1.066855 0 0 Z " fill="#D6D4DE" transform="translate(67,107)"/>
<path d="M0 0 C0.66 0 1.32 0 2 0 C2 1.32 2 2.64 2 4 C1.34 4 0.68 4 0 4 C-0.66 5.65 -1.32 7.3 -2 9 C-3 6 -3 6 -1.5625 2.8125 C-1.046875 1.884375 -0.53125 0.95625 0 0 Z " fill="#3D316D" transform="translate(73,24)"/>
<path d="M0 0 C0.99 0.495 0.99 0.495 2 1 C2.59355614 3.64860427 2.74209269 6.29197322 3 9 C2.34 9 1.68 9 1 9 C0.67 6.03 0.34 3.06 0 0 Z " fill="#D76663" transform="translate(86,128)"/>
<path d="M0 0 C0.66 0.66 1.32 1.32 2 2 C1.96712417 4.72869407 1.43602229 7.2966618 1 10 C0.67 10 0.34 10 0 10 C0 7.69 0 5.38 0 3 C-1.32 3 -2.64 3 -4 3 C-3.67 2.34 -3.34 1.68 -3 1 C-2.01 1.33 -1.02 1.66 0 2 C0 1.34 0 0.68 0 0 Z " fill="#EDD4D2" transform="translate(81,128)"/>
<path d="M0 0 C1.32 0 2.64 0 4 0 C3.34 1.65 2.68 3.3 2 5 C1.01 4.67 0.02 4.34 -1 4 C-0.67 2.68 -0.34 1.36 0 0 Z " fill="#E19190" transform="translate(43,126)"/>
<path d="M0 0 C-0.33 1.65 -0.66 3.3 -1 5 C-1.99 4.34 -2.98 3.68 -4 3 C-4 2.34 -4 1.68 -4 1 C-4.66 0.67 -5.32 0.34 -6 0 C-3.50907189 -1.24546405 -2.58919267 -0.7767578 0 0 Z " fill="#E39E9D" transform="translate(105,125)"/>
<path d="M0 0 C2.97 0.99 5.94 1.98 9 3 C9 3.33 9 3.66 9 4 C3.58461538 4.36923077 3.58461538 4.36923077 0.625 2.5 C0.08875 2.005 -0.4475 1.51 -1 1 C-0.67 0.67 -0.34 0.34 0 0 Z " fill="#483F7C" transform="translate(53,120)"/>
<path d="M0 0 C3.625 0.375 3.625 0.375 7 1 C6.67 1.66 6.34 2.32 6 3 C3.36 2.67 0.72 2.34 -2 2 C-1.34 1.34 -0.68 0.68 0 0 Z " fill="#4B427E" transform="translate(81,109)"/>
<path d="M0 0 C3.63 0 7.26 0 11 0 C10.67 0.99 10.34 1.98 10 3 C6.7 2.34 3.4 1.68 0 1 C0 0.67 0 0.34 0 0 Z " fill="#C5C3CD" transform="translate(105,102)"/>
<path d="M0 0 C2.09350689 3.4019487 2.17942163 6.05272412 2 10 C0.4375 8.9375 0.4375 8.9375 -1 7 C-0.6875 3.3125 -0.6875 3.3125 0 0 Z " fill="#CCD7D3" transform="translate(115,87)"/>
<path d="M0 0 C1.98 0.99 3.96 1.98 6 3 C5.67 3.99 5.34 4.98 5 6 C2.5 4.6875 2.5 4.6875 0 3 C0 2.01 0 1.02 0 0 Z " fill="#D43D39" transform="translate(11,55)"/>
<path d="M0 0 C0.66 0 1.32 0 2 0 C2 1.98 2 3.96 2 6 C0.68 6.33 -0.64 6.66 -2 7 C-1.125 2.25 -1.125 2.25 0 0 Z " fill="#D73834" transform="translate(19,46)"/>
<path d="M0 0 C0.66 0.66 1.32 1.32 2 2 C3.31747324 2.69748583 4.64914193 3.36959957 6 4 C5.360625 4.12375 4.72125 4.2475 4.0625 4.375 C3.0415625 4.684375 3.0415625 4.684375 2 5 C1.67 5.66 1.34 6.32 1 7 C0.34 7 -0.32 7 -1 7 C-0.67 4.69 -0.34 2.38 0 0 Z " fill="#D74E4B" transform="translate(92,17)"/>
<path d="M0 0 C-0.33 0.99 -0.66 1.98 -1 3 C-3.5625 4.1875 -3.5625 4.1875 -6 5 C-6.66 4.34 -7.32 3.68 -8 3 C-2.25 0 -2.25 0 0 0 Z " fill="#554C88" transform="translate(104,116)"/>
<path d="M0 0 C0.66 0.99 1.32 1.98 2 3 C-0.31 4.98 -2.62 6.96 -5 9 C-3.44455189 5.88910379 -1.80979645 2.96148509 0 0 Z " fill="#43387D" transform="translate(116,102)"/>
<path d="M0 0 C0.99 0 1.98 0 3 0 C3 1.65 3 3.3 3 5 C2.01 5.33 1.02 5.66 0 6 C0 4.02 0 2.04 0 0 Z " fill="#F4E3E2" transform="translate(82,13)"/>
<path d="M0 0 C1.65 0 3.3 0 5 0 C5.33 1.65 5.66 3.3 6 5 C5.34 4.34 4.68 3.68 4 3 C1.42938689 2.35232207 1.42938689 2.35232207 -1 2 C-0.67 1.34 -0.34 0.68 0 0 Z " fill="#D62822" transform="translate(81,11)"/>
</svg>
